G04 #@! TF.GenerationSoftware,KiCad,Pcbnew,(5.1.6)-1*
G04 #@! TF.CreationDate,2020-11-21T14:03:53+08:00*
G04 #@! TF.ProjectId,singlepowerbank2,73696e67-6c65-4706-9f77-657262616e6b,rev?*
G04 #@! TF.SameCoordinates,Original*
G04 #@! TF.FileFunction,Soldermask,Bot*
G04 #@! TF.FilePolarity,Negative*
%FSLAX46Y46*%
G04 Gerber Fmt 4.6, Leading zero omitted, Abs format (unit mm)*
G04 Created by KiCad (PCBNEW (5.1.6)-1) date 2020-11-21 14:03:53*
%MOMM*%
%LPD*%
G01*
G04 APERTURE LIST*
%ADD10C,0.100000*%
G04 APERTURE END LIST*
D10*
G36*
X153382585Y-154068802D02*
G01*
X153532410Y-154098604D01*
X153814674Y-154215521D01*
X154068705Y-154385259D01*
X154284741Y-154601295D01*
X154454479Y-154855326D01*
X154571396Y-155137590D01*
X154631000Y-155437240D01*
X154631000Y-155742760D01*
X154571396Y-156042410D01*
X154454479Y-156324674D01*
X154284741Y-156578705D01*
X154068705Y-156794741D01*
X153814674Y-156964479D01*
X153532410Y-157081396D01*
X153382585Y-157111198D01*
X153232761Y-157141000D01*
X152927239Y-157141000D01*
X152777415Y-157111198D01*
X152627590Y-157081396D01*
X152345326Y-156964479D01*
X152091295Y-156794741D01*
X151875259Y-156578705D01*
X151705521Y-156324674D01*
X151588604Y-156042410D01*
X151529000Y-155742760D01*
X151529000Y-155437240D01*
X151588604Y-155137590D01*
X151705521Y-154855326D01*
X151875259Y-154601295D01*
X152091295Y-154385259D01*
X152345326Y-154215521D01*
X152627590Y-154098604D01*
X152777415Y-154068802D01*
X152927239Y-154039000D01*
X153232761Y-154039000D01*
X153382585Y-154068802D01*
G37*
G36*
X68088015Y-152776973D02*
G01*
X68191879Y-152808479D01*
X68219055Y-152823005D01*
X68287600Y-152859643D01*
X68371501Y-152928499D01*
X68440357Y-153012400D01*
X68476995Y-153080945D01*
X68491521Y-153108121D01*
X68523027Y-153211985D01*
X68533666Y-153320000D01*
X68523027Y-153428015D01*
X68491521Y-153531879D01*
X68491519Y-153531882D01*
X68440357Y-153627600D01*
X68371501Y-153711501D01*
X68287600Y-153780357D01*
X68219055Y-153816995D01*
X68191879Y-153831521D01*
X68088015Y-153863027D01*
X68007067Y-153871000D01*
X66852933Y-153871000D01*
X66771985Y-153863027D01*
X66668121Y-153831521D01*
X66640945Y-153816995D01*
X66572400Y-153780357D01*
X66488499Y-153711501D01*
X66419643Y-153627600D01*
X66368481Y-153531882D01*
X66368479Y-153531879D01*
X66336973Y-153428015D01*
X66326334Y-153320000D01*
X66336973Y-153211985D01*
X66368479Y-153108121D01*
X66383005Y-153080945D01*
X66419643Y-153012400D01*
X66488499Y-152928499D01*
X66572400Y-152859643D01*
X66640945Y-152823005D01*
X66668121Y-152808479D01*
X66771985Y-152776973D01*
X66852933Y-152769000D01*
X68007067Y-152769000D01*
X68088015Y-152776973D01*
G37*
G36*
X63658015Y-152776973D02*
G01*
X63761879Y-152808479D01*
X63789055Y-152823005D01*
X63857600Y-152859643D01*
X63941501Y-152928499D01*
X64010357Y-153012400D01*
X64046995Y-153080945D01*
X64061521Y-153108121D01*
X64093027Y-153211985D01*
X64103666Y-153320000D01*
X64093027Y-153428015D01*
X64061521Y-153531879D01*
X64061519Y-153531882D01*
X64010357Y-153627600D01*
X63941501Y-153711501D01*
X63857600Y-153780357D01*
X63789055Y-153816995D01*
X63761879Y-153831521D01*
X63658015Y-153863027D01*
X63577067Y-153871000D01*
X62922933Y-153871000D01*
X62841985Y-153863027D01*
X62738121Y-153831521D01*
X62710945Y-153816995D01*
X62642400Y-153780357D01*
X62558499Y-153711501D01*
X62489643Y-153627600D01*
X62438481Y-153531882D01*
X62438479Y-153531879D01*
X62406973Y-153428015D01*
X62396334Y-153320000D01*
X62406973Y-153211985D01*
X62438479Y-153108121D01*
X62453005Y-153080945D01*
X62489643Y-153012400D01*
X62558499Y-152928499D01*
X62642400Y-152859643D01*
X62710945Y-152823005D01*
X62738121Y-152808479D01*
X62841985Y-152776973D01*
X62922933Y-152769000D01*
X63577067Y-152769000D01*
X63658015Y-152776973D01*
G37*
G36*
X150618228Y-151701703D02*
G01*
X150773100Y-151765853D01*
X150912481Y-151858985D01*
X151031015Y-151977519D01*
X151124147Y-152116900D01*
X151188297Y-152271772D01*
X151221000Y-152436184D01*
X151221000Y-152603816D01*
X151188297Y-152768228D01*
X151124147Y-152923100D01*
X151031015Y-153062481D01*
X150912481Y-153181015D01*
X150773100Y-153274147D01*
X150618228Y-153338297D01*
X150453816Y-153371000D01*
X150286184Y-153371000D01*
X150121772Y-153338297D01*
X149966900Y-153274147D01*
X149827519Y-153181015D01*
X149708985Y-153062481D01*
X149615853Y-152923100D01*
X149551703Y-152768228D01*
X149519000Y-152603816D01*
X149519000Y-152436184D01*
X149551703Y-152271772D01*
X149615853Y-152116900D01*
X149708985Y-151977519D01*
X149827519Y-151858985D01*
X149966900Y-151765853D01*
X150121772Y-151701703D01*
X150286184Y-151669000D01*
X150453816Y-151669000D01*
X150618228Y-151701703D01*
G37*
G36*
X67009672Y-145748449D02*
G01*
X67009674Y-145748450D01*
X67009675Y-145748450D01*
X67048391Y-145764486D01*
X67071836Y-145771598D01*
X67096223Y-145774000D01*
X68391000Y-145774000D01*
X68391000Y-152226000D01*
X67096223Y-152226000D01*
X67071837Y-152228402D01*
X67048391Y-152235514D01*
X67009675Y-152251550D01*
X67009674Y-152251550D01*
X67009672Y-152251551D01*
X66937034Y-152266000D01*
X66862966Y-152266000D01*
X66790328Y-152251551D01*
X66790326Y-152251550D01*
X66790325Y-152251550D01*
X66751609Y-152235514D01*
X66728164Y-152228402D01*
X66703777Y-152226000D01*
X60949000Y-152226000D01*
X60949000Y-145774000D01*
X66703777Y-145774000D01*
X66728163Y-145771598D01*
X66751609Y-145764486D01*
X66790325Y-145748450D01*
X66790326Y-145748450D01*
X66790328Y-145748449D01*
X66862966Y-145734000D01*
X66937034Y-145734000D01*
X67009672Y-145748449D01*
G37*
G36*
X147051000Y-152226000D02*
G01*
X139609000Y-152226000D01*
X139609000Y-145774000D01*
X147051000Y-145774000D01*
X147051000Y-152226000D01*
G37*
G36*
X153613512Y-149143927D02*
G01*
X153762812Y-149173624D01*
X153926784Y-149241544D01*
X154074354Y-149340147D01*
X154199853Y-149465646D01*
X154298456Y-149613216D01*
X154366376Y-149777188D01*
X154396073Y-149926488D01*
X154398002Y-149936184D01*
X154401000Y-149951259D01*
X154401000Y-150128741D01*
X154366376Y-150302812D01*
X154298456Y-150466784D01*
X154199853Y-150614354D01*
X154074354Y-150739853D01*
X153926784Y-150838456D01*
X153762812Y-150906376D01*
X153613512Y-150936073D01*
X153588742Y-150941000D01*
X153411258Y-150941000D01*
X153386488Y-150936073D01*
X153237188Y-150906376D01*
X153073216Y-150838456D01*
X152925646Y-150739853D01*
X152800147Y-150614354D01*
X152701544Y-150466784D01*
X152633624Y-150302812D01*
X152599000Y-150128741D01*
X152599000Y-149951259D01*
X152601999Y-149936184D01*
X152603927Y-149926488D01*
X152633624Y-149777188D01*
X152701544Y-149613216D01*
X152800147Y-149465646D01*
X152925646Y-149340147D01*
X153073216Y-149241544D01*
X153237188Y-149173624D01*
X153386488Y-149143927D01*
X153411258Y-149139000D01*
X153588742Y-149139000D01*
X153613512Y-149143927D01*
G37*
G36*
X150618228Y-149201703D02*
G01*
X150773100Y-149265853D01*
X150912481Y-149358985D01*
X151031015Y-149477519D01*
X151124147Y-149616900D01*
X151188297Y-149771772D01*
X151221000Y-149936184D01*
X151221000Y-150103816D01*
X151188297Y-150268228D01*
X151124147Y-150423100D01*
X151031015Y-150562481D01*
X150912481Y-150681015D01*
X150773100Y-150774147D01*
X150618228Y-150838297D01*
X150453816Y-150871000D01*
X150286184Y-150871000D01*
X150121772Y-150838297D01*
X149966900Y-150774147D01*
X149827519Y-150681015D01*
X149708985Y-150562481D01*
X149615853Y-150423100D01*
X149551703Y-150268228D01*
X149519000Y-150103816D01*
X149519000Y-149936184D01*
X149551703Y-149771772D01*
X149615853Y-149616900D01*
X149708985Y-149477519D01*
X149827519Y-149358985D01*
X149966900Y-149265853D01*
X150121772Y-149201703D01*
X150286184Y-149169000D01*
X150453816Y-149169000D01*
X150618228Y-149201703D01*
G37*
G36*
X150618228Y-147201703D02*
G01*
X150773100Y-147265853D01*
X150912481Y-147358985D01*
X151031015Y-147477519D01*
X151124147Y-147616900D01*
X151188297Y-147771772D01*
X151221000Y-147936184D01*
X151221000Y-148103816D01*
X151188297Y-148268228D01*
X151124147Y-148423100D01*
X151031015Y-148562481D01*
X150912481Y-148681015D01*
X150773100Y-148774147D01*
X150618228Y-148838297D01*
X150453816Y-148871000D01*
X150286184Y-148871000D01*
X150121772Y-148838297D01*
X149966900Y-148774147D01*
X149827519Y-148681015D01*
X149708985Y-148562481D01*
X149615853Y-148423100D01*
X149551703Y-148268228D01*
X149519000Y-148103816D01*
X149519000Y-147936184D01*
X149551703Y-147771772D01*
X149615853Y-147616900D01*
X149708985Y-147477519D01*
X149827519Y-147358985D01*
X149966900Y-147265853D01*
X150121772Y-147201703D01*
X150286184Y-147169000D01*
X150453816Y-147169000D01*
X150618228Y-147201703D01*
G37*
G36*
X154401000Y-148401000D02*
G01*
X152599000Y-148401000D01*
X152599000Y-146599000D01*
X154401000Y-146599000D01*
X154401000Y-148401000D01*
G37*
G36*
X151221000Y-146371000D02*
G01*
X149519000Y-146371000D01*
X149519000Y-144669000D01*
X151221000Y-144669000D01*
X151221000Y-146371000D01*
G37*
G36*
X68088015Y-144136973D02*
G01*
X68191879Y-144168479D01*
X68219055Y-144183005D01*
X68287600Y-144219643D01*
X68371501Y-144288499D01*
X68440357Y-144372400D01*
X68476995Y-144440945D01*
X68491521Y-144468121D01*
X68523027Y-144571985D01*
X68533666Y-144680000D01*
X68523027Y-144788015D01*
X68491521Y-144891879D01*
X68491519Y-144891882D01*
X68440357Y-144987600D01*
X68371501Y-145071501D01*
X68287600Y-145140357D01*
X68219055Y-145176995D01*
X68191879Y-145191521D01*
X68088015Y-145223027D01*
X68007067Y-145231000D01*
X66852933Y-145231000D01*
X66771985Y-145223027D01*
X66668121Y-145191521D01*
X66640945Y-145176995D01*
X66572400Y-145140357D01*
X66488499Y-145071501D01*
X66419643Y-144987600D01*
X66368481Y-144891882D01*
X66368479Y-144891879D01*
X66336973Y-144788015D01*
X66326334Y-144680000D01*
X66336973Y-144571985D01*
X66368479Y-144468121D01*
X66383005Y-144440945D01*
X66419643Y-144372400D01*
X66488499Y-144288499D01*
X66572400Y-144219643D01*
X66640945Y-144183005D01*
X66668121Y-144168479D01*
X66771985Y-144136973D01*
X66852933Y-144129000D01*
X68007067Y-144129000D01*
X68088015Y-144136973D01*
G37*
G36*
X63658015Y-144136973D02*
G01*
X63761879Y-144168479D01*
X63789055Y-144183005D01*
X63857600Y-144219643D01*
X63941501Y-144288499D01*
X64010357Y-144372400D01*
X64046995Y-144440945D01*
X64061521Y-144468121D01*
X64093027Y-144571985D01*
X64103666Y-144680000D01*
X64093027Y-144788015D01*
X64061521Y-144891879D01*
X64061519Y-144891882D01*
X64010357Y-144987600D01*
X63941501Y-145071501D01*
X63857600Y-145140357D01*
X63789055Y-145176995D01*
X63761879Y-145191521D01*
X63658015Y-145223027D01*
X63577067Y-145231000D01*
X62922933Y-145231000D01*
X62841985Y-145223027D01*
X62738121Y-145191521D01*
X62710945Y-145176995D01*
X62642400Y-145140357D01*
X62558499Y-145071501D01*
X62489643Y-144987600D01*
X62438481Y-144891882D01*
X62438479Y-144891879D01*
X62406973Y-144788015D01*
X62396334Y-144680000D01*
X62406973Y-144571985D01*
X62438479Y-144468121D01*
X62453005Y-144440945D01*
X62489643Y-144372400D01*
X62558499Y-144288499D01*
X62642400Y-144219643D01*
X62710945Y-144183005D01*
X62738121Y-144168479D01*
X62841985Y-144136973D01*
X62922933Y-144129000D01*
X63577067Y-144129000D01*
X63658015Y-144136973D01*
G37*
G36*
X153372430Y-140926782D02*
G01*
X153532410Y-140958604D01*
X153814674Y-141075521D01*
X154068705Y-141245259D01*
X154284741Y-141461295D01*
X154454479Y-141715326D01*
X154571396Y-141997590D01*
X154631000Y-142297240D01*
X154631000Y-142602760D01*
X154571396Y-142902410D01*
X154454479Y-143184674D01*
X154284741Y-143438705D01*
X154068705Y-143654741D01*
X153814674Y-143824479D01*
X153532410Y-143941396D01*
X153382585Y-143971198D01*
X153232761Y-144001000D01*
X152927239Y-144001000D01*
X152777415Y-143971198D01*
X152627590Y-143941396D01*
X152345326Y-143824479D01*
X152091295Y-143654741D01*
X151875259Y-143438705D01*
X151705521Y-143184674D01*
X151588604Y-142902410D01*
X151529000Y-142602760D01*
X151529000Y-142297240D01*
X151588604Y-141997590D01*
X151705521Y-141715326D01*
X151875259Y-141461295D01*
X152091295Y-141245259D01*
X152345326Y-141075521D01*
X152627590Y-140958604D01*
X152787570Y-140926782D01*
X152927239Y-140899000D01*
X153232761Y-140899000D01*
X153372430Y-140926782D01*
G37*
G36*
X64073512Y-139603927D02*
G01*
X64222812Y-139633624D01*
X64386784Y-139701544D01*
X64534354Y-139800147D01*
X64659853Y-139925646D01*
X64758456Y-140073216D01*
X64826376Y-140237188D01*
X64861000Y-140411259D01*
X64861000Y-140588741D01*
X64826376Y-140762812D01*
X64758456Y-140926784D01*
X64659853Y-141074354D01*
X64534354Y-141199853D01*
X64386784Y-141298456D01*
X64222812Y-141366376D01*
X64073512Y-141396073D01*
X64048742Y-141401000D01*
X63871258Y-141401000D01*
X63846488Y-141396073D01*
X63697188Y-141366376D01*
X63533216Y-141298456D01*
X63385646Y-141199853D01*
X63260147Y-141074354D01*
X63161544Y-140926784D01*
X63093624Y-140762812D01*
X63059000Y-140588741D01*
X63059000Y-140411259D01*
X63093624Y-140237188D01*
X63161544Y-140073216D01*
X63260147Y-139925646D01*
X63385646Y-139800147D01*
X63533216Y-139701544D01*
X63697188Y-139633624D01*
X63846488Y-139603927D01*
X63871258Y-139599000D01*
X64048742Y-139599000D01*
X64073512Y-139603927D01*
G37*
G36*
X67401000Y-141401000D02*
G01*
X65599000Y-141401000D01*
X65599000Y-139599000D01*
X67401000Y-139599000D01*
X67401000Y-141401000D01*
G37*
M02*
