M48
; DRILL file {KiCad (5.1.6)-1} date 11/21/20 14:04:12
; FORMAT={-:-/ absolute / inch / decimal}
; #@! TF.CreationDate,2020-11-21T14:04:12+08:00
; #@! TF.GenerationSoftware,Kicad,Pcbnew,(5.1.6)-1
; #@! TF.FileFunction,Plated,1,2,PTH
FMAT,2
INCH
T1C0.0157
T2C0.0236
T3C0.0362
T4C0.0394
T5C0.0906
%
G90
G05
T1
X2.7559Y-5.6634
X2.7913Y-5.7126
X2.815Y-5.6693
X2.874Y-5.7185
X2.874Y-5.9055
X2.8937Y-5.8661
X3.0906Y-5.8661
X3.2677Y-5.6693
X3.4055Y-5.6693
T3
X5.9201Y-5.7291
X5.9201Y-5.8276
X5.9201Y-5.9063
X5.9201Y-6.0047
T4
X2.5181Y-5.5315
X2.6181Y-5.5315
X6.0433Y-5.8071
X6.0433Y-5.9071
T5
X6.0268Y-5.6083
X6.0268Y-6.1256
T2
G00X2.502Y-5.6961
M15
G01X2.4783Y-5.6961
M16
G05
G00X2.502Y-6.0362
M15
G01X2.4783Y-6.0362
M16
G05
G00X2.6764Y-5.6961
M15
G01X2.6331Y-5.6961
M16
G05
G00X2.6764Y-6.0362
M15
G01X2.6331Y-6.0362
M16
G05
T0
M30
