G04 #@! TF.GenerationSoftware,KiCad,Pcbnew,(5.1.6)-1*
G04 #@! TF.CreationDate,2020-11-21T14:03:53+08:00*
G04 #@! TF.ProjectId,singlepowerbank2,73696e67-6c65-4706-9f77-657262616e6b,rev?*
G04 #@! TF.SameCoordinates,Original*
G04 #@! TF.FileFunction,Copper,L1,Top*
G04 #@! TF.FilePolarity,Positive*
%FSLAX46Y46*%
G04 Gerber Fmt 4.6, Leading zero omitted, Abs format (unit mm)*
G04 Created by KiCad (PCBNEW (5.1.6)-1) date 2020-11-21 14:03:53*
%MOMM*%
%LPD*%
G01*
G04 APERTURE LIST*
G04 #@! TA.AperFunction,SMDPad,CuDef*
%ADD10R,1.500000X3.600000*%
G04 #@! TD*
G04 #@! TA.AperFunction,ComponentPad*
%ADD11O,1.700000X1.700000*%
G04 #@! TD*
G04 #@! TA.AperFunction,ComponentPad*
%ADD12R,1.700000X1.700000*%
G04 #@! TD*
G04 #@! TA.AperFunction,SMDPad,CuDef*
%ADD13R,2.613000X3.502000*%
G04 #@! TD*
G04 #@! TA.AperFunction,SMDPad,CuDef*
%ADD14R,1.505000X0.802000*%
G04 #@! TD*
G04 #@! TA.AperFunction,SMDPad,CuDef*
%ADD15R,1.450000X0.600000*%
G04 #@! TD*
G04 #@! TA.AperFunction,SMDPad,CuDef*
%ADD16R,1.450000X0.300000*%
G04 #@! TD*
G04 #@! TA.AperFunction,ComponentPad*
%ADD17O,2.100000X1.000000*%
G04 #@! TD*
G04 #@! TA.AperFunction,ComponentPad*
%ADD18O,1.600000X1.000000*%
G04 #@! TD*
G04 #@! TA.AperFunction,ComponentPad*
%ADD19C,1.600000*%
G04 #@! TD*
G04 #@! TA.AperFunction,ComponentPad*
%ADD20R,1.600000X1.600000*%
G04 #@! TD*
G04 #@! TA.AperFunction,ComponentPad*
%ADD21C,3.000000*%
G04 #@! TD*
G04 #@! TA.AperFunction,ViaPad*
%ADD22C,0.800000*%
G04 #@! TD*
G04 #@! TA.AperFunction,Conductor*
%ADD23C,0.500000*%
G04 #@! TD*
G04 #@! TA.AperFunction,Conductor*
%ADD24C,1.000000*%
G04 #@! TD*
G04 #@! TA.AperFunction,Conductor*
%ADD25C,0.254000*%
G04 #@! TD*
G04 APERTURE END LIST*
D10*
X76025000Y-154000000D03*
X72975000Y-154000000D03*
G04 #@! TA.AperFunction,SMDPad,CuDef*
G36*
G01*
X80100000Y-152756250D02*
X80100000Y-152243750D01*
G75*
G02*
X80318750Y-152025000I218750J0D01*
G01*
X80756250Y-152025000D01*
G75*
G02*
X80975000Y-152243750I0J-218750D01*
G01*
X80975000Y-152756250D01*
G75*
G02*
X80756250Y-152975000I-218750J0D01*
G01*
X80318750Y-152975000D01*
G75*
G02*
X80100000Y-152756250I0J218750D01*
G01*
G37*
G04 #@! TD.AperFunction*
G04 #@! TA.AperFunction,SMDPad,CuDef*
G36*
G01*
X78525000Y-152756250D02*
X78525000Y-152243750D01*
G75*
G02*
X78743750Y-152025000I218750J0D01*
G01*
X79181250Y-152025000D01*
G75*
G02*
X79400000Y-152243750I0J-218750D01*
G01*
X79400000Y-152756250D01*
G75*
G02*
X79181250Y-152975000I-218750J0D01*
G01*
X78743750Y-152975000D01*
G75*
G02*
X78525000Y-152756250I0J218750D01*
G01*
G37*
G04 #@! TD.AperFunction*
G04 #@! TA.AperFunction,SMDPad,CuDef*
G36*
G01*
X80137500Y-151006250D02*
X80137500Y-150493750D01*
G75*
G02*
X80356250Y-150275000I218750J0D01*
G01*
X80793750Y-150275000D01*
G75*
G02*
X81012500Y-150493750I0J-218750D01*
G01*
X81012500Y-151006250D01*
G75*
G02*
X80793750Y-151225000I-218750J0D01*
G01*
X80356250Y-151225000D01*
G75*
G02*
X80137500Y-151006250I0J218750D01*
G01*
G37*
G04 #@! TD.AperFunction*
G04 #@! TA.AperFunction,SMDPad,CuDef*
G36*
G01*
X78562500Y-151006250D02*
X78562500Y-150493750D01*
G75*
G02*
X78781250Y-150275000I218750J0D01*
G01*
X79218750Y-150275000D01*
G75*
G02*
X79437500Y-150493750I0J-218750D01*
G01*
X79437500Y-151006250D01*
G75*
G02*
X79218750Y-151225000I-218750J0D01*
G01*
X78781250Y-151225000D01*
G75*
G02*
X78562500Y-151006250I0J218750D01*
G01*
G37*
G04 #@! TD.AperFunction*
G04 #@! TA.AperFunction,SMDPad,CuDef*
G36*
G01*
X76850000Y-151006250D02*
X76850000Y-150493750D01*
G75*
G02*
X77068750Y-150275000I218750J0D01*
G01*
X77506250Y-150275000D01*
G75*
G02*
X77725000Y-150493750I0J-218750D01*
G01*
X77725000Y-151006250D01*
G75*
G02*
X77506250Y-151225000I-218750J0D01*
G01*
X77068750Y-151225000D01*
G75*
G02*
X76850000Y-151006250I0J218750D01*
G01*
G37*
G04 #@! TD.AperFunction*
G04 #@! TA.AperFunction,SMDPad,CuDef*
G36*
G01*
X75275000Y-151006250D02*
X75275000Y-150493750D01*
G75*
G02*
X75493750Y-150275000I218750J0D01*
G01*
X75931250Y-150275000D01*
G75*
G02*
X76150000Y-150493750I0J-218750D01*
G01*
X76150000Y-151006250D01*
G75*
G02*
X75931250Y-151225000I-218750J0D01*
G01*
X75493750Y-151225000D01*
G75*
G02*
X75275000Y-151006250I0J218750D01*
G01*
G37*
G04 #@! TD.AperFunction*
D11*
X153500000Y-150040000D03*
D12*
X153500000Y-147500000D03*
D11*
X63960000Y-140500000D03*
D12*
X66500000Y-140500000D03*
G04 #@! TA.AperFunction,SMDPad,CuDef*
G36*
G01*
X85256250Y-148150000D02*
X84743750Y-148150000D01*
G75*
G02*
X84525000Y-147931250I0J218750D01*
G01*
X84525000Y-147493750D01*
G75*
G02*
X84743750Y-147275000I218750J0D01*
G01*
X85256250Y-147275000D01*
G75*
G02*
X85475000Y-147493750I0J-218750D01*
G01*
X85475000Y-147931250D01*
G75*
G02*
X85256250Y-148150000I-218750J0D01*
G01*
G37*
G04 #@! TD.AperFunction*
G04 #@! TA.AperFunction,SMDPad,CuDef*
G36*
G01*
X85256250Y-149725000D02*
X84743750Y-149725000D01*
G75*
G02*
X84525000Y-149506250I0J218750D01*
G01*
X84525000Y-149068750D01*
G75*
G02*
X84743750Y-148850000I218750J0D01*
G01*
X85256250Y-148850000D01*
G75*
G02*
X85475000Y-149068750I0J-218750D01*
G01*
X85475000Y-149506250D01*
G75*
G02*
X85256250Y-149725000I-218750J0D01*
G01*
G37*
G04 #@! TD.AperFunction*
D13*
X79000000Y-146000000D03*
D14*
X81497500Y-144095000D03*
X81497500Y-145365000D03*
X81497500Y-146635000D03*
X81497500Y-147905000D03*
X76502500Y-147905000D03*
X76502500Y-146635000D03*
X76502500Y-145365000D03*
X76502500Y-144095000D03*
G04 #@! TA.AperFunction,SMDPad,CuDef*
G36*
G01*
X77350000Y-142756250D02*
X77350000Y-142243750D01*
G75*
G02*
X77568750Y-142025000I218750J0D01*
G01*
X78006250Y-142025000D01*
G75*
G02*
X78225000Y-142243750I0J-218750D01*
G01*
X78225000Y-142756250D01*
G75*
G02*
X78006250Y-142975000I-218750J0D01*
G01*
X77568750Y-142975000D01*
G75*
G02*
X77350000Y-142756250I0J218750D01*
G01*
G37*
G04 #@! TD.AperFunction*
G04 #@! TA.AperFunction,SMDPad,CuDef*
G36*
G01*
X75775000Y-142756250D02*
X75775000Y-142243750D01*
G75*
G02*
X75993750Y-142025000I218750J0D01*
G01*
X76431250Y-142025000D01*
G75*
G02*
X76650000Y-142243750I0J-218750D01*
G01*
X76650000Y-142756250D01*
G75*
G02*
X76431250Y-142975000I-218750J0D01*
G01*
X75993750Y-142975000D01*
G75*
G02*
X75775000Y-142756250I0J218750D01*
G01*
G37*
G04 #@! TD.AperFunction*
G04 #@! TA.AperFunction,SMDPad,CuDef*
G36*
G01*
X85256250Y-145150000D02*
X84743750Y-145150000D01*
G75*
G02*
X84525000Y-144931250I0J218750D01*
G01*
X84525000Y-144493750D01*
G75*
G02*
X84743750Y-144275000I218750J0D01*
G01*
X85256250Y-144275000D01*
G75*
G02*
X85475000Y-144493750I0J-218750D01*
G01*
X85475000Y-144931250D01*
G75*
G02*
X85256250Y-145150000I-218750J0D01*
G01*
G37*
G04 #@! TD.AperFunction*
G04 #@! TA.AperFunction,SMDPad,CuDef*
G36*
G01*
X85256250Y-146725000D02*
X84743750Y-146725000D01*
G75*
G02*
X84525000Y-146506250I0J218750D01*
G01*
X84525000Y-146068750D01*
G75*
G02*
X84743750Y-145850000I218750J0D01*
G01*
X85256250Y-145850000D01*
G75*
G02*
X85475000Y-146068750I0J-218750D01*
G01*
X85475000Y-146506250D01*
G75*
G02*
X85256250Y-146725000I-218750J0D01*
G01*
G37*
G04 #@! TD.AperFunction*
G04 #@! TA.AperFunction,SMDPad,CuDef*
G36*
G01*
X80650000Y-142243750D02*
X80650000Y-142756250D01*
G75*
G02*
X80431250Y-142975000I-218750J0D01*
G01*
X79993750Y-142975000D01*
G75*
G02*
X79775000Y-142756250I0J218750D01*
G01*
X79775000Y-142243750D01*
G75*
G02*
X79993750Y-142025000I218750J0D01*
G01*
X80431250Y-142025000D01*
G75*
G02*
X80650000Y-142243750I0J-218750D01*
G01*
G37*
G04 #@! TD.AperFunction*
G04 #@! TA.AperFunction,SMDPad,CuDef*
G36*
G01*
X82225000Y-142243750D02*
X82225000Y-142756250D01*
G75*
G02*
X82006250Y-142975000I-218750J0D01*
G01*
X81568750Y-142975000D01*
G75*
G02*
X81350000Y-142756250I0J218750D01*
G01*
X81350000Y-142243750D01*
G75*
G02*
X81568750Y-142025000I218750J0D01*
G01*
X82006250Y-142025000D01*
G75*
G02*
X82225000Y-142243750I0J-218750D01*
G01*
G37*
G04 #@! TD.AperFunction*
G04 #@! TA.AperFunction,SMDPad,CuDef*
G36*
G01*
X74756250Y-146650000D02*
X74243750Y-146650000D01*
G75*
G02*
X74025000Y-146431250I0J218750D01*
G01*
X74025000Y-145993750D01*
G75*
G02*
X74243750Y-145775000I218750J0D01*
G01*
X74756250Y-145775000D01*
G75*
G02*
X74975000Y-145993750I0J-218750D01*
G01*
X74975000Y-146431250D01*
G75*
G02*
X74756250Y-146650000I-218750J0D01*
G01*
G37*
G04 #@! TD.AperFunction*
G04 #@! TA.AperFunction,SMDPad,CuDef*
G36*
G01*
X74756250Y-148225000D02*
X74243750Y-148225000D01*
G75*
G02*
X74025000Y-148006250I0J218750D01*
G01*
X74025000Y-147568750D01*
G75*
G02*
X74243750Y-147350000I218750J0D01*
G01*
X74756250Y-147350000D01*
G75*
G02*
X74975000Y-147568750I0J-218750D01*
G01*
X74975000Y-148006250D01*
G75*
G02*
X74756250Y-148225000I-218750J0D01*
G01*
G37*
G04 #@! TD.AperFunction*
G04 #@! TA.AperFunction,SMDPad,CuDef*
G36*
G01*
X74243750Y-143850000D02*
X74756250Y-143850000D01*
G75*
G02*
X74975000Y-144068750I0J-218750D01*
G01*
X74975000Y-144506250D01*
G75*
G02*
X74756250Y-144725000I-218750J0D01*
G01*
X74243750Y-144725000D01*
G75*
G02*
X74025000Y-144506250I0J218750D01*
G01*
X74025000Y-144068750D01*
G75*
G02*
X74243750Y-143850000I218750J0D01*
G01*
G37*
G04 #@! TD.AperFunction*
G04 #@! TA.AperFunction,SMDPad,CuDef*
G36*
G01*
X74243750Y-142275000D02*
X74756250Y-142275000D01*
G75*
G02*
X74975000Y-142493750I0J-218750D01*
G01*
X74975000Y-142931250D01*
G75*
G02*
X74756250Y-143150000I-218750J0D01*
G01*
X74243750Y-143150000D01*
G75*
G02*
X74025000Y-142931250I0J218750D01*
G01*
X74025000Y-142493750D01*
G75*
G02*
X74243750Y-142275000I218750J0D01*
G01*
G37*
G04 #@! TD.AperFunction*
D15*
X68345000Y-152250000D03*
X68345000Y-151450000D03*
X68345000Y-146550000D03*
X68345000Y-145750000D03*
X68345000Y-145750000D03*
X68345000Y-146550000D03*
X68345000Y-151450000D03*
X68345000Y-152250000D03*
D16*
X68345000Y-147250000D03*
X68345000Y-147750000D03*
X68345000Y-148250000D03*
X68345000Y-149250000D03*
X68345000Y-149750000D03*
X68345000Y-150250000D03*
X68345000Y-150750000D03*
X68345000Y-148750000D03*
D17*
X67430000Y-153320000D03*
X67430000Y-144680000D03*
D18*
X63250000Y-144680000D03*
X63250000Y-153320000D03*
D19*
X150370000Y-152520000D03*
X150370000Y-150020000D03*
X150370000Y-148020000D03*
D20*
X150370000Y-145520000D03*
D21*
X153080000Y-142450000D03*
X153080000Y-155590000D03*
D22*
X73500000Y-149000000D03*
X78500000Y-149000000D03*
X70898952Y-145101048D03*
X73000000Y-145249992D03*
X69999998Y-143849990D03*
X71500000Y-144000000D03*
X73000000Y-150000000D03*
X83000000Y-144000000D03*
X86500000Y-144000000D03*
D23*
X153080000Y-155590000D02*
X153080000Y-155230000D01*
X63250000Y-144680000D02*
X67430000Y-144680000D01*
X67430000Y-144835000D02*
X68345000Y-145750000D01*
X67430000Y-144680000D02*
X67430000Y-144835000D01*
X63250000Y-153320000D02*
X67430000Y-153320000D01*
X68345000Y-152405000D02*
X67430000Y-153320000D01*
X68345000Y-152250000D02*
X68345000Y-152405000D01*
X67500000Y-144610000D02*
X67430000Y-144680000D01*
X84652500Y-146635000D02*
X85000000Y-146287500D01*
X81497500Y-146635000D02*
X84652500Y-146635000D01*
X78500000Y-146500000D02*
X79000000Y-146000000D01*
X78500000Y-149000000D02*
X78500000Y-146500000D01*
X79635000Y-146635000D02*
X81497500Y-146635000D01*
X79000000Y-146000000D02*
X79635000Y-146635000D01*
X85000000Y-146287500D02*
X85000000Y-147712500D01*
D24*
X152850000Y-150040000D02*
X150370000Y-152520000D01*
X153500000Y-150040000D02*
X152850000Y-150040000D01*
X150370000Y-152880000D02*
X153080000Y-155590000D01*
X150370000Y-152520000D02*
X150370000Y-152880000D01*
X149852930Y-142450000D02*
X153080000Y-142450000D01*
X147550000Y-142450000D02*
X149852930Y-142450000D01*
X85000000Y-146287500D02*
X143712500Y-146287500D01*
X143712500Y-146287500D02*
X147550000Y-142450000D01*
D23*
X74500000Y-144287500D02*
X74500000Y-146212500D01*
X73500000Y-149000000D02*
X70898952Y-146398952D01*
X70898952Y-150921048D02*
X70898952Y-145101048D01*
X68345000Y-152250000D02*
X69570000Y-152250000D01*
X70898952Y-146398952D02*
X70898952Y-145101048D01*
X69570000Y-152250000D02*
X70898952Y-150921048D01*
X73249996Y-145249992D02*
X73000000Y-145249992D01*
X74500000Y-146212500D02*
X74212504Y-146212500D01*
X74212504Y-146212500D02*
X73249996Y-145249992D01*
X80575000Y-150075000D02*
X80575000Y-150750000D01*
X78500000Y-149000000D02*
X79500000Y-149000000D01*
X79500000Y-149000000D02*
X80575000Y-150075000D01*
X80575000Y-152462500D02*
X80537500Y-152500000D01*
X80575000Y-150750000D02*
X80575000Y-152462500D01*
D24*
X63250000Y-141210000D02*
X63250000Y-144680000D01*
X63960000Y-140500000D02*
X63250000Y-141210000D01*
D23*
X69999998Y-144415675D02*
X69999998Y-143849990D01*
X69999998Y-146120002D02*
X69999998Y-144415675D01*
X70000000Y-150780002D02*
X70000000Y-146200000D01*
X69330002Y-151450000D02*
X70000000Y-150780002D01*
X68345000Y-151450000D02*
X69330002Y-151450000D01*
X70000000Y-146200000D02*
X69999998Y-146120002D01*
X70000000Y-146600000D02*
X70000000Y-146200000D01*
X68345000Y-146550000D02*
X69950000Y-146550000D01*
X69950000Y-146550000D02*
X70000000Y-146600000D01*
D24*
X71137488Y-142712500D02*
X69999998Y-143849990D01*
X74500000Y-142712500D02*
X71137488Y-142712500D01*
X76000000Y-142712500D02*
X76212500Y-142500000D01*
X74500000Y-142712500D02*
X76000000Y-142712500D01*
X76212500Y-143805000D02*
X76502500Y-144095000D01*
X76212500Y-142500000D02*
X76212500Y-143805000D01*
D23*
X77787500Y-142500000D02*
X80212500Y-142500000D01*
X76502500Y-145365000D02*
X76502500Y-146635000D01*
X75652500Y-146635000D02*
X74500000Y-147787500D01*
X76502500Y-146635000D02*
X75652500Y-146635000D01*
X74500000Y-150000000D02*
X73000000Y-150000000D01*
X74500000Y-147787500D02*
X74500000Y-150000000D01*
X72000000Y-144500000D02*
X71500000Y-144000000D01*
X72000000Y-145893750D02*
X72000000Y-144500000D01*
X74500000Y-147787500D02*
X73893750Y-147787500D01*
X73893750Y-147787500D02*
X72000000Y-145893750D01*
D24*
X73000000Y-153975000D02*
X72975000Y-154000000D01*
X73000000Y-150000000D02*
X73000000Y-153975000D01*
D23*
X83635000Y-145365000D02*
X81497500Y-145365000D01*
X84000000Y-145000000D02*
X83635000Y-145365000D01*
X84000000Y-143000000D02*
X84000000Y-145000000D01*
X81787500Y-142500000D02*
X83500000Y-142500000D01*
X83500000Y-142500000D02*
X84000000Y-143000000D01*
X81497500Y-144095000D02*
X82905000Y-144095000D01*
X82905000Y-144095000D02*
X83000000Y-144000000D01*
X85712500Y-144000000D02*
X85000000Y-144712500D01*
X86500000Y-144000000D02*
X85712500Y-144000000D01*
D24*
X148480000Y-145520000D02*
X150370000Y-145520000D01*
X85000000Y-149287500D02*
X144712500Y-149287500D01*
X144712500Y-149287500D02*
X148480000Y-145520000D01*
X82880000Y-149287500D02*
X85000000Y-149287500D01*
X81497500Y-147905000D02*
X82880000Y-149287500D01*
X151520000Y-145520000D02*
X153500000Y-147500000D01*
X150370000Y-145520000D02*
X151520000Y-145520000D01*
D23*
X77287500Y-150750000D02*
X79000000Y-150750000D01*
X79000000Y-152462500D02*
X78962500Y-152500000D01*
X79000000Y-150750000D02*
X79000000Y-152462500D01*
D24*
X75712500Y-148695000D02*
X75712500Y-150750000D01*
X76502500Y-147905000D02*
X75712500Y-148695000D01*
X75712500Y-153687500D02*
X76025000Y-154000000D01*
X75712500Y-150750000D02*
X75712500Y-153687500D01*
D25*
G36*
X154740001Y-141221181D02*
G01*
X154571653Y-141137952D01*
X153259605Y-142450000D01*
X154571653Y-143762048D01*
X154740001Y-143678819D01*
X154740001Y-146148602D01*
X154704494Y-146119463D01*
X154594180Y-146060498D01*
X154474482Y-146024188D01*
X154350000Y-146011928D01*
X153617060Y-146011928D01*
X152361996Y-144756865D01*
X152326449Y-144713551D01*
X152153623Y-144571716D01*
X151956447Y-144466324D01*
X151742499Y-144401423D01*
X151718470Y-144399056D01*
X151700537Y-144365506D01*
X151621185Y-144268815D01*
X151524494Y-144189463D01*
X151414180Y-144130498D01*
X151294482Y-144094188D01*
X151170000Y-144081928D01*
X149570000Y-144081928D01*
X149445518Y-144094188D01*
X149325820Y-144130498D01*
X149215506Y-144189463D01*
X149118815Y-144268815D01*
X149039463Y-144365506D01*
X149029043Y-144385000D01*
X148535752Y-144385000D01*
X148480000Y-144379509D01*
X148257501Y-144401423D01*
X148043553Y-144466324D01*
X147846377Y-144571716D01*
X147716856Y-144678011D01*
X147716855Y-144678012D01*
X147673551Y-144713551D01*
X147638013Y-144756854D01*
X144242369Y-148152500D01*
X86112826Y-148152500D01*
X86113072Y-148150000D01*
X86110000Y-147998250D01*
X85951250Y-147839500D01*
X85127000Y-147839500D01*
X85127000Y-147859500D01*
X84873000Y-147859500D01*
X84873000Y-147839500D01*
X84048750Y-147839500D01*
X83890000Y-147998250D01*
X83886928Y-148150000D01*
X83887174Y-148152500D01*
X83350132Y-148152500D01*
X82888072Y-147690441D01*
X82888072Y-147504000D01*
X82875812Y-147379518D01*
X82842590Y-147270000D01*
X82875812Y-147160482D01*
X82888072Y-147036000D01*
X82885000Y-146920750D01*
X82726250Y-146762000D01*
X81624500Y-146762000D01*
X81624500Y-146777017D01*
X81497500Y-146764509D01*
X81370500Y-146777017D01*
X81370500Y-146762000D01*
X81350500Y-146762000D01*
X81350500Y-146725000D01*
X83886928Y-146725000D01*
X83899188Y-146849482D01*
X83935498Y-146969180D01*
X83951972Y-147000000D01*
X83935498Y-147030820D01*
X83899188Y-147150518D01*
X83886928Y-147275000D01*
X83890000Y-147426750D01*
X84048750Y-147585500D01*
X84873000Y-147585500D01*
X84873000Y-146414500D01*
X85127000Y-146414500D01*
X85127000Y-147585500D01*
X85951250Y-147585500D01*
X86110000Y-147426750D01*
X86113072Y-147275000D01*
X86100812Y-147150518D01*
X86064502Y-147030820D01*
X86048028Y-147000000D01*
X86064502Y-146969180D01*
X86100812Y-146849482D01*
X86113072Y-146725000D01*
X86110000Y-146573250D01*
X85951250Y-146414500D01*
X85127000Y-146414500D01*
X84873000Y-146414500D01*
X84048750Y-146414500D01*
X83890000Y-146573250D01*
X83886928Y-146725000D01*
X81350500Y-146725000D01*
X81350500Y-146508000D01*
X81370500Y-146508000D01*
X81370500Y-146488000D01*
X81624500Y-146488000D01*
X81624500Y-146508000D01*
X82726250Y-146508000D01*
X82885000Y-146349250D01*
X82887646Y-146250000D01*
X83591531Y-146250000D01*
X83635000Y-146254281D01*
X83678469Y-146250000D01*
X83678477Y-146250000D01*
X83808490Y-146237195D01*
X83975313Y-146186589D01*
X84040172Y-146151922D01*
X84048750Y-146160500D01*
X84873000Y-146160500D01*
X84873000Y-146140500D01*
X85127000Y-146140500D01*
X85127000Y-146160500D01*
X85951250Y-146160500D01*
X86110000Y-146001750D01*
X86113072Y-145850000D01*
X86100812Y-145725518D01*
X86064502Y-145605820D01*
X86005537Y-145495506D01*
X85950900Y-145428930D01*
X85968671Y-145407275D01*
X86047850Y-145259142D01*
X86096608Y-145098408D01*
X86110351Y-144958878D01*
X86198102Y-144995226D01*
X86398061Y-145035000D01*
X86601939Y-145035000D01*
X86801898Y-144995226D01*
X86990256Y-144917205D01*
X87159774Y-144803937D01*
X87303937Y-144659774D01*
X87417205Y-144490256D01*
X87495226Y-144301898D01*
X87535000Y-144101939D01*
X87535000Y-143941653D01*
X151767952Y-143941653D01*
X151923962Y-144257214D01*
X152298745Y-144448020D01*
X152703551Y-144562044D01*
X153122824Y-144594902D01*
X153540451Y-144545334D01*
X153940383Y-144415243D01*
X154236038Y-144257214D01*
X154392048Y-143941653D01*
X153080000Y-142629605D01*
X151767952Y-143941653D01*
X87535000Y-143941653D01*
X87535000Y-143898061D01*
X87495226Y-143698102D01*
X87417205Y-143509744D01*
X87303937Y-143340226D01*
X87159774Y-143196063D01*
X86990256Y-143082795D01*
X86801898Y-143004774D01*
X86601939Y-142965000D01*
X86398061Y-142965000D01*
X86198102Y-143004774D01*
X86009744Y-143082795D01*
X85961546Y-143115000D01*
X85755965Y-143115000D01*
X85712499Y-143110719D01*
X85669033Y-143115000D01*
X85669023Y-143115000D01*
X85539010Y-143127805D01*
X85372187Y-143178411D01*
X85218441Y-143260589D01*
X85188952Y-143284790D01*
X85117453Y-143343468D01*
X85117451Y-143343470D01*
X85083683Y-143371183D01*
X85055970Y-143404951D01*
X84885000Y-143575921D01*
X84885000Y-143043469D01*
X84889281Y-143000000D01*
X84885000Y-142956531D01*
X84885000Y-142956523D01*
X84872195Y-142826510D01*
X84821589Y-142659687D01*
X84739411Y-142505941D01*
X84728647Y-142492824D01*
X150935098Y-142492824D01*
X150984666Y-142910451D01*
X151114757Y-143310383D01*
X151272786Y-143606038D01*
X151588347Y-143762048D01*
X152900395Y-142450000D01*
X151588347Y-141137952D01*
X151272786Y-141293962D01*
X151081980Y-141668745D01*
X150967956Y-142073551D01*
X150935098Y-142492824D01*
X84728647Y-142492824D01*
X84628817Y-142371183D01*
X84595045Y-142343467D01*
X84156534Y-141904956D01*
X84128817Y-141871183D01*
X83994059Y-141760589D01*
X83840313Y-141678411D01*
X83673490Y-141627805D01*
X83543477Y-141615000D01*
X83543469Y-141615000D01*
X83500000Y-141610719D01*
X83456531Y-141615000D01*
X82584229Y-141615000D01*
X82482275Y-141531329D01*
X82334142Y-141452150D01*
X82173408Y-141403392D01*
X82006250Y-141386928D01*
X81568750Y-141386928D01*
X81401592Y-141403392D01*
X81240858Y-141452150D01*
X81092725Y-141531329D01*
X81000000Y-141607426D01*
X80907275Y-141531329D01*
X80759142Y-141452150D01*
X80598408Y-141403392D01*
X80431250Y-141386928D01*
X79993750Y-141386928D01*
X79826592Y-141403392D01*
X79665858Y-141452150D01*
X79517725Y-141531329D01*
X79415771Y-141615000D01*
X78584229Y-141615000D01*
X78482275Y-141531329D01*
X78334142Y-141452150D01*
X78173408Y-141403392D01*
X78006250Y-141386928D01*
X77568750Y-141386928D01*
X77401592Y-141403392D01*
X77240858Y-141452150D01*
X77092725Y-141531329D01*
X77000000Y-141607426D01*
X76907275Y-141531329D01*
X76759142Y-141452150D01*
X76598408Y-141403392D01*
X76463673Y-141390121D01*
X76434998Y-141381423D01*
X76212500Y-141359509D01*
X75990001Y-141381423D01*
X75961326Y-141390122D01*
X75826592Y-141403392D01*
X75665858Y-141452150D01*
X75517725Y-141531329D01*
X75461465Y-141577500D01*
X71193240Y-141577500D01*
X71137488Y-141572009D01*
X71081736Y-141577500D01*
X70914989Y-141593923D01*
X70701041Y-141658824D01*
X70503865Y-141764216D01*
X70331039Y-141906051D01*
X70295499Y-141949357D01*
X69158010Y-143086847D01*
X69051715Y-143216368D01*
X68946322Y-143413544D01*
X68881421Y-143627492D01*
X68859507Y-143849990D01*
X68870907Y-143965734D01*
X68716169Y-143806839D01*
X68531678Y-143679997D01*
X68325987Y-143591585D01*
X68107000Y-143545000D01*
X67557000Y-143545000D01*
X67557000Y-144553000D01*
X67577000Y-144553000D01*
X67577000Y-144807000D01*
X67557000Y-144807000D01*
X67557000Y-144818133D01*
X67495518Y-144824188D01*
X67486248Y-144827000D01*
X67303000Y-144827000D01*
X67303000Y-144807000D01*
X65912046Y-144807000D01*
X65785881Y-144981874D01*
X65865724Y-145204976D01*
X65987631Y-145392764D01*
X66128206Y-145537116D01*
X66049259Y-145655269D01*
X65976892Y-145829978D01*
X65940000Y-146015448D01*
X65940000Y-146204552D01*
X65976892Y-146390022D01*
X66049259Y-146564731D01*
X66154319Y-146721964D01*
X66288036Y-146855681D01*
X66445269Y-146960741D01*
X66619978Y-147033108D01*
X66805448Y-147070000D01*
X66984883Y-147070000D01*
X66981928Y-147100000D01*
X66981928Y-147400000D01*
X66991777Y-147500000D01*
X66981928Y-147600000D01*
X66981928Y-147900000D01*
X66991777Y-148000000D01*
X66981928Y-148100000D01*
X66981928Y-148400000D01*
X66991777Y-148500000D01*
X66981928Y-148600000D01*
X66981928Y-148900000D01*
X66991777Y-149000000D01*
X66981928Y-149100000D01*
X66981928Y-149400000D01*
X66991777Y-149500000D01*
X66981928Y-149600000D01*
X66981928Y-149900000D01*
X66991777Y-150000000D01*
X66981928Y-150100000D01*
X66981928Y-150400000D01*
X66991777Y-150500000D01*
X66981928Y-150600000D01*
X66981928Y-150900000D01*
X66984883Y-150930000D01*
X66805448Y-150930000D01*
X66619978Y-150966892D01*
X66445269Y-151039259D01*
X66288036Y-151144319D01*
X66154319Y-151278036D01*
X66049259Y-151435269D01*
X65976892Y-151609978D01*
X65940000Y-151795448D01*
X65940000Y-151984552D01*
X65976892Y-152170022D01*
X66049259Y-152344731D01*
X66128206Y-152462884D01*
X65987631Y-152607236D01*
X65865724Y-152795024D01*
X65785881Y-153018126D01*
X65912046Y-153193000D01*
X67303000Y-153193000D01*
X67303000Y-153173000D01*
X67486248Y-153173000D01*
X67495518Y-153175812D01*
X67557000Y-153181867D01*
X67557000Y-153193000D01*
X68947954Y-153193000D01*
X68952104Y-153187247D01*
X69070000Y-153188072D01*
X69194482Y-153175812D01*
X69314180Y-153139502D01*
X69424494Y-153080537D01*
X69521185Y-153001185D01*
X69600537Y-152904494D01*
X69659502Y-152794180D01*
X69695812Y-152674482D01*
X69708072Y-152550000D01*
X69705000Y-152535750D01*
X69546252Y-152377002D01*
X69705000Y-152377002D01*
X69705000Y-152253050D01*
X69824061Y-152189411D01*
X69958819Y-152078817D01*
X69986536Y-152045044D01*
X70595050Y-151436531D01*
X70628817Y-151408819D01*
X70668474Y-151360498D01*
X70739410Y-151274062D01*
X70739411Y-151274061D01*
X70821589Y-151120315D01*
X70872195Y-150953492D01*
X70885000Y-150823479D01*
X70885000Y-150823469D01*
X70889281Y-150780003D01*
X70885000Y-150736537D01*
X70885000Y-146643469D01*
X70889281Y-146600000D01*
X70885000Y-146556531D01*
X70885000Y-146243464D01*
X70885001Y-146243454D01*
X70885000Y-146198815D01*
X70885000Y-146156523D01*
X70884998Y-146156507D01*
X70884998Y-144833853D01*
X71009744Y-144917205D01*
X71115001Y-144960804D01*
X71115000Y-145850280D01*
X71110719Y-145893750D01*
X71115000Y-145937219D01*
X71115000Y-145937226D01*
X71122704Y-146015448D01*
X71127805Y-146067240D01*
X71139081Y-146104410D01*
X71178411Y-146234062D01*
X71260589Y-146387808D01*
X71371183Y-146522567D01*
X71404956Y-146550284D01*
X73237220Y-148382549D01*
X73264933Y-148416317D01*
X73298701Y-148444030D01*
X73298703Y-148444032D01*
X73337069Y-148475518D01*
X73399691Y-148526911D01*
X73553437Y-148609089D01*
X73615000Y-148627764D01*
X73615001Y-149041762D01*
X73436446Y-148946324D01*
X73222498Y-148881423D01*
X73000000Y-148859509D01*
X72777501Y-148881423D01*
X72563553Y-148946324D01*
X72366377Y-149051716D01*
X72193551Y-149193551D01*
X72051716Y-149366377D01*
X71946324Y-149563554D01*
X71881423Y-149777502D01*
X71865000Y-149944249D01*
X71865000Y-151673981D01*
X71773815Y-151748815D01*
X71694463Y-151845506D01*
X71635498Y-151955820D01*
X71599188Y-152075518D01*
X71586928Y-152200000D01*
X71586928Y-155800000D01*
X71599188Y-155924482D01*
X71635498Y-156044180D01*
X71694463Y-156154494D01*
X71773815Y-156251185D01*
X71870506Y-156330537D01*
X71980820Y-156389502D01*
X72100518Y-156425812D01*
X72225000Y-156438072D01*
X73725000Y-156438072D01*
X73849482Y-156425812D01*
X73969180Y-156389502D01*
X74079494Y-156330537D01*
X74176185Y-156251185D01*
X74255537Y-156154494D01*
X74314502Y-156044180D01*
X74350812Y-155924482D01*
X74363072Y-155800000D01*
X74363072Y-152200000D01*
X74350812Y-152075518D01*
X74314502Y-151955820D01*
X74255537Y-151845506D01*
X74176185Y-151748815D01*
X74135000Y-151715015D01*
X74135000Y-150885000D01*
X74456524Y-150885000D01*
X74500000Y-150889282D01*
X74577500Y-150881649D01*
X74577501Y-153631739D01*
X74572009Y-153687500D01*
X74593923Y-153909998D01*
X74636928Y-154051765D01*
X74636928Y-155800000D01*
X74649188Y-155924482D01*
X74685498Y-156044180D01*
X74744463Y-156154494D01*
X74823815Y-156251185D01*
X74920506Y-156330537D01*
X75030820Y-156389502D01*
X75150518Y-156425812D01*
X75275000Y-156438072D01*
X76775000Y-156438072D01*
X76899482Y-156425812D01*
X77019180Y-156389502D01*
X77129494Y-156330537D01*
X77226185Y-156251185D01*
X77305537Y-156154494D01*
X77364502Y-156044180D01*
X77400812Y-155924482D01*
X77413072Y-155800000D01*
X77413072Y-155632824D01*
X150935098Y-155632824D01*
X150984666Y-156050451D01*
X151114757Y-156450383D01*
X151272786Y-156746038D01*
X151588347Y-156902048D01*
X152900395Y-155590000D01*
X151588347Y-154277952D01*
X151272786Y-154433962D01*
X151081980Y-154808745D01*
X150967956Y-155213551D01*
X150935098Y-155632824D01*
X77413072Y-155632824D01*
X77413072Y-154098347D01*
X151767952Y-154098347D01*
X153080000Y-155410395D01*
X154392048Y-154098347D01*
X154236038Y-153782786D01*
X153861255Y-153591980D01*
X153456449Y-153477956D01*
X153037176Y-153445098D01*
X152619549Y-153494666D01*
X152219617Y-153624757D01*
X151923962Y-153782786D01*
X151767952Y-154098347D01*
X77413072Y-154098347D01*
X77413072Y-152200000D01*
X77400812Y-152075518D01*
X77364502Y-151955820D01*
X77314926Y-151863072D01*
X77506250Y-151863072D01*
X77673408Y-151846608D01*
X77834142Y-151797850D01*
X77982275Y-151718671D01*
X78084229Y-151635000D01*
X78115001Y-151635000D01*
X78115001Y-151665770D01*
X78031329Y-151767725D01*
X77952150Y-151915858D01*
X77903392Y-152076592D01*
X77886928Y-152243750D01*
X77886928Y-152756250D01*
X77903392Y-152923408D01*
X77952150Y-153084142D01*
X78031329Y-153232275D01*
X78137885Y-153362115D01*
X78267725Y-153468671D01*
X78415858Y-153547850D01*
X78576592Y-153596608D01*
X78743750Y-153613072D01*
X79181250Y-153613072D01*
X79348408Y-153596608D01*
X79509142Y-153547850D01*
X79657275Y-153468671D01*
X79678930Y-153450900D01*
X79745506Y-153505537D01*
X79855820Y-153564502D01*
X79975518Y-153600812D01*
X80100000Y-153613072D01*
X80251750Y-153610000D01*
X80410500Y-153451250D01*
X80410500Y-152627000D01*
X80664500Y-152627000D01*
X80664500Y-153451250D01*
X80823250Y-153610000D01*
X80975000Y-153613072D01*
X81099482Y-153600812D01*
X81219180Y-153564502D01*
X81316089Y-153512702D01*
X149556903Y-153512702D01*
X149628486Y-153756671D01*
X149883996Y-153877571D01*
X150158184Y-153946300D01*
X150440512Y-153960217D01*
X150720130Y-153918787D01*
X150986292Y-153823603D01*
X151111514Y-153756671D01*
X151183097Y-153512702D01*
X150370000Y-152699605D01*
X149556903Y-153512702D01*
X81316089Y-153512702D01*
X81329494Y-153505537D01*
X81426185Y-153426185D01*
X81505537Y-153329494D01*
X81564502Y-153219180D01*
X81600812Y-153099482D01*
X81613072Y-152975000D01*
X81610000Y-152785750D01*
X81451250Y-152627000D01*
X80664500Y-152627000D01*
X80410500Y-152627000D01*
X80390500Y-152627000D01*
X80390500Y-152590512D01*
X148929783Y-152590512D01*
X148971213Y-152870130D01*
X149066397Y-153136292D01*
X149133329Y-153261514D01*
X149377298Y-153333097D01*
X150190395Y-152520000D01*
X150549605Y-152520000D01*
X151362702Y-153333097D01*
X151606671Y-153261514D01*
X151727571Y-153006004D01*
X151796300Y-152731816D01*
X151810217Y-152449488D01*
X151768787Y-152169870D01*
X151673603Y-151903708D01*
X151606671Y-151778486D01*
X151362702Y-151706903D01*
X150549605Y-152520000D01*
X150190395Y-152520000D01*
X149377298Y-151706903D01*
X149133329Y-151778486D01*
X149012429Y-152033996D01*
X148943700Y-152308184D01*
X148929783Y-152590512D01*
X80390500Y-152590512D01*
X80390500Y-152373000D01*
X80410500Y-152373000D01*
X80410500Y-151738750D01*
X80448000Y-151701250D01*
X80448000Y-151548750D01*
X80664500Y-151548750D01*
X80664500Y-152373000D01*
X81451250Y-152373000D01*
X81610000Y-152214250D01*
X81613072Y-152025000D01*
X81600812Y-151900518D01*
X81564502Y-151780820D01*
X81505537Y-151670506D01*
X81486941Y-151647847D01*
X81543037Y-151579494D01*
X81602002Y-151469180D01*
X81638312Y-151349482D01*
X81650572Y-151225000D01*
X81647500Y-151035750D01*
X81488750Y-150877000D01*
X80702000Y-150877000D01*
X80702000Y-151511250D01*
X80664500Y-151548750D01*
X80448000Y-151548750D01*
X80448000Y-150877000D01*
X80428000Y-150877000D01*
X80428000Y-150623000D01*
X80448000Y-150623000D01*
X80448000Y-149798750D01*
X80702000Y-149798750D01*
X80702000Y-150623000D01*
X81488750Y-150623000D01*
X81647500Y-150464250D01*
X81650572Y-150275000D01*
X81638312Y-150150518D01*
X81602002Y-150030820D01*
X81543037Y-149920506D01*
X81463685Y-149823815D01*
X81366994Y-149744463D01*
X81256680Y-149685498D01*
X81136982Y-149649188D01*
X81012500Y-149636928D01*
X80860750Y-149640000D01*
X80702000Y-149798750D01*
X80448000Y-149798750D01*
X80289250Y-149640000D01*
X80137500Y-149636928D01*
X80013018Y-149649188D01*
X79893320Y-149685498D01*
X79783006Y-149744463D01*
X79716430Y-149799100D01*
X79694775Y-149781329D01*
X79546642Y-149702150D01*
X79385908Y-149653392D01*
X79218750Y-149636928D01*
X78781250Y-149636928D01*
X78614092Y-149653392D01*
X78453358Y-149702150D01*
X78305225Y-149781329D01*
X78203271Y-149865000D01*
X78084229Y-149865000D01*
X77982275Y-149781329D01*
X77834142Y-149702150D01*
X77673408Y-149653392D01*
X77506250Y-149636928D01*
X77068750Y-149636928D01*
X76901592Y-149653392D01*
X76847500Y-149669801D01*
X76847500Y-149165132D01*
X77068560Y-148944072D01*
X77255000Y-148944072D01*
X77379482Y-148931812D01*
X77499180Y-148895502D01*
X77609494Y-148836537D01*
X77706185Y-148757185D01*
X77785537Y-148660494D01*
X77844502Y-148550180D01*
X77880812Y-148430482D01*
X77884947Y-148388496D01*
X78714250Y-148386000D01*
X78873000Y-148227250D01*
X78873000Y-146127000D01*
X78853000Y-146127000D01*
X78853000Y-145873000D01*
X78873000Y-145873000D01*
X78873000Y-143772750D01*
X78714250Y-143614000D01*
X78018100Y-143611905D01*
X78173408Y-143596608D01*
X78334142Y-143547850D01*
X78482275Y-143468671D01*
X78584229Y-143385000D01*
X79415771Y-143385000D01*
X79517725Y-143468671D01*
X79665858Y-143547850D01*
X79826592Y-143596608D01*
X79981900Y-143611905D01*
X79285750Y-143614000D01*
X79127000Y-143772750D01*
X79127000Y-145873000D01*
X79147000Y-145873000D01*
X79147000Y-146127000D01*
X79127000Y-146127000D01*
X79127000Y-148227250D01*
X79285750Y-148386000D01*
X80115053Y-148388496D01*
X80119188Y-148430482D01*
X80155498Y-148550180D01*
X80214463Y-148660494D01*
X80293815Y-148757185D01*
X80390506Y-148836537D01*
X80500820Y-148895502D01*
X80620518Y-148931812D01*
X80745000Y-148944072D01*
X80931441Y-148944072D01*
X82038008Y-150050640D01*
X82073551Y-150093949D01*
X82246377Y-150235784D01*
X82443553Y-150341176D01*
X82657501Y-150406077D01*
X82824248Y-150422500D01*
X82824257Y-150422500D01*
X82879999Y-150427990D01*
X82935741Y-150422500D01*
X144656749Y-150422500D01*
X144712500Y-150427991D01*
X144768251Y-150422500D01*
X144768252Y-150422500D01*
X144934999Y-150406077D01*
X145148947Y-150341176D01*
X145346123Y-150235784D01*
X145518949Y-150093949D01*
X145554496Y-150050635D01*
X148950133Y-146655000D01*
X149029043Y-146655000D01*
X149039463Y-146674494D01*
X149118815Y-146771185D01*
X149215506Y-146850537D01*
X149325820Y-146909502D01*
X149421943Y-146938661D01*
X149255363Y-147105241D01*
X149098320Y-147340273D01*
X148990147Y-147601426D01*
X148935000Y-147878665D01*
X148935000Y-148161335D01*
X148990147Y-148438574D01*
X149098320Y-148699727D01*
X149255363Y-148934759D01*
X149340604Y-149020000D01*
X149255363Y-149105241D01*
X149098320Y-149340273D01*
X148990147Y-149601426D01*
X148935000Y-149878665D01*
X148935000Y-150161335D01*
X148990147Y-150438574D01*
X149098320Y-150699727D01*
X149255363Y-150934759D01*
X149455241Y-151134637D01*
X149655869Y-151268692D01*
X149628486Y-151283329D01*
X149556903Y-151527298D01*
X150370000Y-152340395D01*
X151183097Y-151527298D01*
X151111514Y-151283329D01*
X151082659Y-151269676D01*
X151284759Y-151134637D01*
X151484637Y-150934759D01*
X151641680Y-150699727D01*
X151749853Y-150438574D01*
X151758144Y-150396890D01*
X152058524Y-150396890D01*
X152103175Y-150544099D01*
X152228359Y-150806920D01*
X152402412Y-151040269D01*
X152618645Y-151235178D01*
X152868748Y-151384157D01*
X153143109Y-151481481D01*
X153373000Y-151360814D01*
X153373000Y-150167000D01*
X152179845Y-150167000D01*
X152058524Y-150396890D01*
X151758144Y-150396890D01*
X151805000Y-150161335D01*
X151805000Y-149878665D01*
X151749853Y-149601426D01*
X151641680Y-149340273D01*
X151484637Y-149105241D01*
X151399396Y-149020000D01*
X151484637Y-148934759D01*
X151641680Y-148699727D01*
X151749853Y-148438574D01*
X151805000Y-148161335D01*
X151805000Y-147878665D01*
X151749853Y-147601426D01*
X151641680Y-147340273D01*
X151484637Y-147105241D01*
X151318057Y-146938661D01*
X151329928Y-146935060D01*
X152011928Y-147617060D01*
X152011928Y-148350000D01*
X152024188Y-148474482D01*
X152060498Y-148594180D01*
X152119463Y-148704494D01*
X152198815Y-148801185D01*
X152295506Y-148880537D01*
X152405820Y-148939502D01*
X152486466Y-148963966D01*
X152402412Y-149039731D01*
X152228359Y-149273080D01*
X152103175Y-149535901D01*
X152058524Y-149683110D01*
X152179845Y-149913000D01*
X153373000Y-149913000D01*
X153373000Y-149893000D01*
X153627000Y-149893000D01*
X153627000Y-149913000D01*
X153647000Y-149913000D01*
X153647000Y-150167000D01*
X153627000Y-150167000D01*
X153627000Y-151360814D01*
X153856891Y-151481481D01*
X154131252Y-151384157D01*
X154381355Y-151235178D01*
X154597588Y-151040269D01*
X154740000Y-150849340D01*
X154740000Y-154361181D01*
X154571653Y-154277952D01*
X153259605Y-155590000D01*
X154571653Y-156902048D01*
X154740000Y-156818819D01*
X154740000Y-159340000D01*
X61060000Y-159340000D01*
X61060000Y-157081653D01*
X151767952Y-157081653D01*
X151923962Y-157397214D01*
X152298745Y-157588020D01*
X152703551Y-157702044D01*
X153122824Y-157734902D01*
X153540451Y-157685334D01*
X153940383Y-157555243D01*
X154236038Y-157397214D01*
X154392048Y-157081653D01*
X153080000Y-155769605D01*
X151767952Y-157081653D01*
X61060000Y-157081653D01*
X61060000Y-153621874D01*
X61855881Y-153621874D01*
X61935724Y-153844976D01*
X62057631Y-154032764D01*
X62213831Y-154193161D01*
X62398322Y-154320003D01*
X62604013Y-154408415D01*
X62823000Y-154455000D01*
X63123000Y-154455000D01*
X63123000Y-153447000D01*
X63377000Y-153447000D01*
X63377000Y-154455000D01*
X63677000Y-154455000D01*
X63895987Y-154408415D01*
X64101678Y-154320003D01*
X64286169Y-154193161D01*
X64442369Y-154032764D01*
X64564276Y-153844976D01*
X64644119Y-153621874D01*
X65785881Y-153621874D01*
X65865724Y-153844976D01*
X65987631Y-154032764D01*
X66143831Y-154193161D01*
X66328322Y-154320003D01*
X66534013Y-154408415D01*
X66753000Y-154455000D01*
X67303000Y-154455000D01*
X67303000Y-153447000D01*
X67557000Y-153447000D01*
X67557000Y-154455000D01*
X68107000Y-154455000D01*
X68325987Y-154408415D01*
X68531678Y-154320003D01*
X68716169Y-154193161D01*
X68872369Y-154032764D01*
X68994276Y-153844976D01*
X69074119Y-153621874D01*
X68947954Y-153447000D01*
X67557000Y-153447000D01*
X67303000Y-153447000D01*
X65912046Y-153447000D01*
X65785881Y-153621874D01*
X64644119Y-153621874D01*
X64517954Y-153447000D01*
X63377000Y-153447000D01*
X63123000Y-153447000D01*
X61982046Y-153447000D01*
X61855881Y-153621874D01*
X61060000Y-153621874D01*
X61060000Y-153018126D01*
X61855881Y-153018126D01*
X61982046Y-153193000D01*
X63123000Y-153193000D01*
X63123000Y-152185000D01*
X63377000Y-152185000D01*
X63377000Y-153193000D01*
X64517954Y-153193000D01*
X64644119Y-153018126D01*
X64564276Y-152795024D01*
X64442369Y-152607236D01*
X64286169Y-152446839D01*
X64101678Y-152319997D01*
X63895987Y-152231585D01*
X63677000Y-152185000D01*
X63377000Y-152185000D01*
X63123000Y-152185000D01*
X62823000Y-152185000D01*
X62604013Y-152231585D01*
X62398322Y-152319997D01*
X62213831Y-152446839D01*
X62057631Y-152607236D01*
X61935724Y-152795024D01*
X61855881Y-153018126D01*
X61060000Y-153018126D01*
X61060000Y-144981874D01*
X61855881Y-144981874D01*
X61935724Y-145204976D01*
X62057631Y-145392764D01*
X62213831Y-145553161D01*
X62398322Y-145680003D01*
X62604013Y-145768415D01*
X62823000Y-145815000D01*
X63123000Y-145815000D01*
X63123000Y-144807000D01*
X63377000Y-144807000D01*
X63377000Y-145815000D01*
X63677000Y-145815000D01*
X63895987Y-145768415D01*
X64101678Y-145680003D01*
X64286169Y-145553161D01*
X64442369Y-145392764D01*
X64564276Y-145204976D01*
X64644119Y-144981874D01*
X64517954Y-144807000D01*
X63377000Y-144807000D01*
X63123000Y-144807000D01*
X61982046Y-144807000D01*
X61855881Y-144981874D01*
X61060000Y-144981874D01*
X61060000Y-144378126D01*
X61855881Y-144378126D01*
X61982046Y-144553000D01*
X63123000Y-144553000D01*
X63123000Y-143545000D01*
X63377000Y-143545000D01*
X63377000Y-144553000D01*
X64517954Y-144553000D01*
X64644119Y-144378126D01*
X65785881Y-144378126D01*
X65912046Y-144553000D01*
X67303000Y-144553000D01*
X67303000Y-143545000D01*
X66753000Y-143545000D01*
X66534013Y-143591585D01*
X66328322Y-143679997D01*
X66143831Y-143806839D01*
X65987631Y-143967236D01*
X65865724Y-144155024D01*
X65785881Y-144378126D01*
X64644119Y-144378126D01*
X64564276Y-144155024D01*
X64442369Y-143967236D01*
X64286169Y-143806839D01*
X64101678Y-143679997D01*
X63895987Y-143591585D01*
X63677000Y-143545000D01*
X63377000Y-143545000D01*
X63123000Y-143545000D01*
X62823000Y-143545000D01*
X62604013Y-143591585D01*
X62398322Y-143679997D01*
X62213831Y-143806839D01*
X62057631Y-143967236D01*
X61935724Y-144155024D01*
X61855881Y-144378126D01*
X61060000Y-144378126D01*
X61060000Y-140856891D01*
X62518519Y-140856891D01*
X62615843Y-141131252D01*
X62764822Y-141381355D01*
X62959731Y-141597588D01*
X63193080Y-141771641D01*
X63455901Y-141896825D01*
X63603110Y-141941476D01*
X63833000Y-141820155D01*
X63833000Y-140627000D01*
X62639186Y-140627000D01*
X62518519Y-140856891D01*
X61060000Y-140856891D01*
X61060000Y-140143109D01*
X62518519Y-140143109D01*
X62639186Y-140373000D01*
X63833000Y-140373000D01*
X63833000Y-139179845D01*
X64087000Y-139179845D01*
X64087000Y-140373000D01*
X64107000Y-140373000D01*
X64107000Y-140627000D01*
X64087000Y-140627000D01*
X64087000Y-141820155D01*
X64316890Y-141941476D01*
X64464099Y-141896825D01*
X64726920Y-141771641D01*
X64960269Y-141597588D01*
X65036034Y-141513534D01*
X65060498Y-141594180D01*
X65119463Y-141704494D01*
X65198815Y-141801185D01*
X65295506Y-141880537D01*
X65405820Y-141939502D01*
X65525518Y-141975812D01*
X65650000Y-141988072D01*
X67350000Y-141988072D01*
X67474482Y-141975812D01*
X67594180Y-141939502D01*
X67704494Y-141880537D01*
X67801185Y-141801185D01*
X67880537Y-141704494D01*
X67939502Y-141594180D01*
X67975812Y-141474482D01*
X67988072Y-141350000D01*
X67988072Y-140958347D01*
X151767952Y-140958347D01*
X153080000Y-142270395D01*
X154392048Y-140958347D01*
X154236038Y-140642786D01*
X153861255Y-140451980D01*
X153456449Y-140337956D01*
X153037176Y-140305098D01*
X152619549Y-140354666D01*
X152219617Y-140484757D01*
X151923962Y-140642786D01*
X151767952Y-140958347D01*
X67988072Y-140958347D01*
X67988072Y-139650000D01*
X67975812Y-139525518D01*
X67939502Y-139405820D01*
X67880537Y-139295506D01*
X67801185Y-139198815D01*
X67704494Y-139119463D01*
X67594180Y-139060498D01*
X67474482Y-139024188D01*
X67350000Y-139011928D01*
X65650000Y-139011928D01*
X65525518Y-139024188D01*
X65405820Y-139060498D01*
X65295506Y-139119463D01*
X65198815Y-139198815D01*
X65119463Y-139295506D01*
X65060498Y-139405820D01*
X65036034Y-139486466D01*
X64960269Y-139402412D01*
X64726920Y-139228359D01*
X64464099Y-139103175D01*
X64316890Y-139058524D01*
X64087000Y-139179845D01*
X63833000Y-139179845D01*
X63603110Y-139058524D01*
X63455901Y-139103175D01*
X63193080Y-139228359D01*
X62959731Y-139402412D01*
X62764822Y-139618645D01*
X62615843Y-139868748D01*
X62518519Y-140143109D01*
X61060000Y-140143109D01*
X61060000Y-138660000D01*
X154740001Y-138660000D01*
X154740001Y-141221181D01*
G37*
X154740001Y-141221181D02*
X154571653Y-141137952D01*
X153259605Y-142450000D01*
X154571653Y-143762048D01*
X154740001Y-143678819D01*
X154740001Y-146148602D01*
X154704494Y-146119463D01*
X154594180Y-146060498D01*
X154474482Y-146024188D01*
X154350000Y-146011928D01*
X153617060Y-146011928D01*
X152361996Y-144756865D01*
X152326449Y-144713551D01*
X152153623Y-144571716D01*
X151956447Y-144466324D01*
X151742499Y-144401423D01*
X151718470Y-144399056D01*
X151700537Y-144365506D01*
X151621185Y-144268815D01*
X151524494Y-144189463D01*
X151414180Y-144130498D01*
X151294482Y-144094188D01*
X151170000Y-144081928D01*
X149570000Y-144081928D01*
X149445518Y-144094188D01*
X149325820Y-144130498D01*
X149215506Y-144189463D01*
X149118815Y-144268815D01*
X149039463Y-144365506D01*
X149029043Y-144385000D01*
X148535752Y-144385000D01*
X148480000Y-144379509D01*
X148257501Y-144401423D01*
X148043553Y-144466324D01*
X147846377Y-144571716D01*
X147716856Y-144678011D01*
X147716855Y-144678012D01*
X147673551Y-144713551D01*
X147638013Y-144756854D01*
X144242369Y-148152500D01*
X86112826Y-148152500D01*
X86113072Y-148150000D01*
X86110000Y-147998250D01*
X85951250Y-147839500D01*
X85127000Y-147839500D01*
X85127000Y-147859500D01*
X84873000Y-147859500D01*
X84873000Y-147839500D01*
X84048750Y-147839500D01*
X83890000Y-147998250D01*
X83886928Y-148150000D01*
X83887174Y-148152500D01*
X83350132Y-148152500D01*
X82888072Y-147690441D01*
X82888072Y-147504000D01*
X82875812Y-147379518D01*
X82842590Y-147270000D01*
X82875812Y-147160482D01*
X82888072Y-147036000D01*
X82885000Y-146920750D01*
X82726250Y-146762000D01*
X81624500Y-146762000D01*
X81624500Y-146777017D01*
X81497500Y-146764509D01*
X81370500Y-146777017D01*
X81370500Y-146762000D01*
X81350500Y-146762000D01*
X81350500Y-146725000D01*
X83886928Y-146725000D01*
X83899188Y-146849482D01*
X83935498Y-146969180D01*
X83951972Y-147000000D01*
X83935498Y-147030820D01*
X83899188Y-147150518D01*
X83886928Y-147275000D01*
X83890000Y-147426750D01*
X84048750Y-147585500D01*
X84873000Y-147585500D01*
X84873000Y-146414500D01*
X85127000Y-146414500D01*
X85127000Y-147585500D01*
X85951250Y-147585500D01*
X86110000Y-147426750D01*
X86113072Y-147275000D01*
X86100812Y-147150518D01*
X86064502Y-147030820D01*
X86048028Y-147000000D01*
X86064502Y-146969180D01*
X86100812Y-146849482D01*
X86113072Y-146725000D01*
X86110000Y-146573250D01*
X85951250Y-146414500D01*
X85127000Y-146414500D01*
X84873000Y-146414500D01*
X84048750Y-146414500D01*
X83890000Y-146573250D01*
X83886928Y-146725000D01*
X81350500Y-146725000D01*
X81350500Y-146508000D01*
X81370500Y-146508000D01*
X81370500Y-146488000D01*
X81624500Y-146488000D01*
X81624500Y-146508000D01*
X82726250Y-146508000D01*
X82885000Y-146349250D01*
X82887646Y-146250000D01*
X83591531Y-146250000D01*
X83635000Y-146254281D01*
X83678469Y-146250000D01*
X83678477Y-146250000D01*
X83808490Y-146237195D01*
X83975313Y-146186589D01*
X84040172Y-146151922D01*
X84048750Y-146160500D01*
X84873000Y-146160500D01*
X84873000Y-146140500D01*
X85127000Y-146140500D01*
X85127000Y-146160500D01*
X85951250Y-146160500D01*
X86110000Y-146001750D01*
X86113072Y-145850000D01*
X86100812Y-145725518D01*
X86064502Y-145605820D01*
X86005537Y-145495506D01*
X85950900Y-145428930D01*
X85968671Y-145407275D01*
X86047850Y-145259142D01*
X86096608Y-145098408D01*
X86110351Y-144958878D01*
X86198102Y-144995226D01*
X86398061Y-145035000D01*
X86601939Y-145035000D01*
X86801898Y-144995226D01*
X86990256Y-144917205D01*
X87159774Y-144803937D01*
X87303937Y-144659774D01*
X87417205Y-144490256D01*
X87495226Y-144301898D01*
X87535000Y-144101939D01*
X87535000Y-143941653D01*
X151767952Y-143941653D01*
X151923962Y-144257214D01*
X152298745Y-144448020D01*
X152703551Y-144562044D01*
X153122824Y-144594902D01*
X153540451Y-144545334D01*
X153940383Y-144415243D01*
X154236038Y-144257214D01*
X154392048Y-143941653D01*
X153080000Y-142629605D01*
X151767952Y-143941653D01*
X87535000Y-143941653D01*
X87535000Y-143898061D01*
X87495226Y-143698102D01*
X87417205Y-143509744D01*
X87303937Y-143340226D01*
X87159774Y-143196063D01*
X86990256Y-143082795D01*
X86801898Y-143004774D01*
X86601939Y-142965000D01*
X86398061Y-142965000D01*
X86198102Y-143004774D01*
X86009744Y-143082795D01*
X85961546Y-143115000D01*
X85755965Y-143115000D01*
X85712499Y-143110719D01*
X85669033Y-143115000D01*
X85669023Y-143115000D01*
X85539010Y-143127805D01*
X85372187Y-143178411D01*
X85218441Y-143260589D01*
X85188952Y-143284790D01*
X85117453Y-143343468D01*
X85117451Y-143343470D01*
X85083683Y-143371183D01*
X85055970Y-143404951D01*
X84885000Y-143575921D01*
X84885000Y-143043469D01*
X84889281Y-143000000D01*
X84885000Y-142956531D01*
X84885000Y-142956523D01*
X84872195Y-142826510D01*
X84821589Y-142659687D01*
X84739411Y-142505941D01*
X84728647Y-142492824D01*
X150935098Y-142492824D01*
X150984666Y-142910451D01*
X151114757Y-143310383D01*
X151272786Y-143606038D01*
X151588347Y-143762048D01*
X152900395Y-142450000D01*
X151588347Y-141137952D01*
X151272786Y-141293962D01*
X151081980Y-141668745D01*
X150967956Y-142073551D01*
X150935098Y-142492824D01*
X84728647Y-142492824D01*
X84628817Y-142371183D01*
X84595045Y-142343467D01*
X84156534Y-141904956D01*
X84128817Y-141871183D01*
X83994059Y-141760589D01*
X83840313Y-141678411D01*
X83673490Y-141627805D01*
X83543477Y-141615000D01*
X83543469Y-141615000D01*
X83500000Y-141610719D01*
X83456531Y-141615000D01*
X82584229Y-141615000D01*
X82482275Y-141531329D01*
X82334142Y-141452150D01*
X82173408Y-141403392D01*
X82006250Y-141386928D01*
X81568750Y-141386928D01*
X81401592Y-141403392D01*
X81240858Y-141452150D01*
X81092725Y-141531329D01*
X81000000Y-141607426D01*
X80907275Y-141531329D01*
X80759142Y-141452150D01*
X80598408Y-141403392D01*
X80431250Y-141386928D01*
X79993750Y-141386928D01*
X79826592Y-141403392D01*
X79665858Y-141452150D01*
X79517725Y-141531329D01*
X79415771Y-141615000D01*
X78584229Y-141615000D01*
X78482275Y-141531329D01*
X78334142Y-141452150D01*
X78173408Y-141403392D01*
X78006250Y-141386928D01*
X77568750Y-141386928D01*
X77401592Y-141403392D01*
X77240858Y-141452150D01*
X77092725Y-141531329D01*
X77000000Y-141607426D01*
X76907275Y-141531329D01*
X76759142Y-141452150D01*
X76598408Y-141403392D01*
X76463673Y-141390121D01*
X76434998Y-141381423D01*
X76212500Y-141359509D01*
X75990001Y-141381423D01*
X75961326Y-141390122D01*
X75826592Y-141403392D01*
X75665858Y-141452150D01*
X75517725Y-141531329D01*
X75461465Y-141577500D01*
X71193240Y-141577500D01*
X71137488Y-141572009D01*
X71081736Y-141577500D01*
X70914989Y-141593923D01*
X70701041Y-141658824D01*
X70503865Y-141764216D01*
X70331039Y-141906051D01*
X70295499Y-141949357D01*
X69158010Y-143086847D01*
X69051715Y-143216368D01*
X68946322Y-143413544D01*
X68881421Y-143627492D01*
X68859507Y-143849990D01*
X68870907Y-143965734D01*
X68716169Y-143806839D01*
X68531678Y-143679997D01*
X68325987Y-143591585D01*
X68107000Y-143545000D01*
X67557000Y-143545000D01*
X67557000Y-144553000D01*
X67577000Y-144553000D01*
X67577000Y-144807000D01*
X67557000Y-144807000D01*
X67557000Y-144818133D01*
X67495518Y-144824188D01*
X67486248Y-144827000D01*
X67303000Y-144827000D01*
X67303000Y-144807000D01*
X65912046Y-144807000D01*
X65785881Y-144981874D01*
X65865724Y-145204976D01*
X65987631Y-145392764D01*
X66128206Y-145537116D01*
X66049259Y-145655269D01*
X65976892Y-145829978D01*
X65940000Y-146015448D01*
X65940000Y-146204552D01*
X65976892Y-146390022D01*
X66049259Y-146564731D01*
X66154319Y-146721964D01*
X66288036Y-146855681D01*
X66445269Y-146960741D01*
X66619978Y-147033108D01*
X66805448Y-147070000D01*
X66984883Y-147070000D01*
X66981928Y-147100000D01*
X66981928Y-147400000D01*
X66991777Y-147500000D01*
X66981928Y-147600000D01*
X66981928Y-147900000D01*
X66991777Y-148000000D01*
X66981928Y-148100000D01*
X66981928Y-148400000D01*
X66991777Y-148500000D01*
X66981928Y-148600000D01*
X66981928Y-148900000D01*
X66991777Y-149000000D01*
X66981928Y-149100000D01*
X66981928Y-149400000D01*
X66991777Y-149500000D01*
X66981928Y-149600000D01*
X66981928Y-149900000D01*
X66991777Y-150000000D01*
X66981928Y-150100000D01*
X66981928Y-150400000D01*
X66991777Y-150500000D01*
X66981928Y-150600000D01*
X66981928Y-150900000D01*
X66984883Y-150930000D01*
X66805448Y-150930000D01*
X66619978Y-150966892D01*
X66445269Y-151039259D01*
X66288036Y-151144319D01*
X66154319Y-151278036D01*
X66049259Y-151435269D01*
X65976892Y-151609978D01*
X65940000Y-151795448D01*
X65940000Y-151984552D01*
X65976892Y-152170022D01*
X66049259Y-152344731D01*
X66128206Y-152462884D01*
X65987631Y-152607236D01*
X65865724Y-152795024D01*
X65785881Y-153018126D01*
X65912046Y-153193000D01*
X67303000Y-153193000D01*
X67303000Y-153173000D01*
X67486248Y-153173000D01*
X67495518Y-153175812D01*
X67557000Y-153181867D01*
X67557000Y-153193000D01*
X68947954Y-153193000D01*
X68952104Y-153187247D01*
X69070000Y-153188072D01*
X69194482Y-153175812D01*
X69314180Y-153139502D01*
X69424494Y-153080537D01*
X69521185Y-153001185D01*
X69600537Y-152904494D01*
X69659502Y-152794180D01*
X69695812Y-152674482D01*
X69708072Y-152550000D01*
X69705000Y-152535750D01*
X69546252Y-152377002D01*
X69705000Y-152377002D01*
X69705000Y-152253050D01*
X69824061Y-152189411D01*
X69958819Y-152078817D01*
X69986536Y-152045044D01*
X70595050Y-151436531D01*
X70628817Y-151408819D01*
X70668474Y-151360498D01*
X70739410Y-151274062D01*
X70739411Y-151274061D01*
X70821589Y-151120315D01*
X70872195Y-150953492D01*
X70885000Y-150823479D01*
X70885000Y-150823469D01*
X70889281Y-150780003D01*
X70885000Y-150736537D01*
X70885000Y-146643469D01*
X70889281Y-146600000D01*
X70885000Y-146556531D01*
X70885000Y-146243464D01*
X70885001Y-146243454D01*
X70885000Y-146198815D01*
X70885000Y-146156523D01*
X70884998Y-146156507D01*
X70884998Y-144833853D01*
X71009744Y-144917205D01*
X71115001Y-144960804D01*
X71115000Y-145850280D01*
X71110719Y-145893750D01*
X71115000Y-145937219D01*
X71115000Y-145937226D01*
X71122704Y-146015448D01*
X71127805Y-146067240D01*
X71139081Y-146104410D01*
X71178411Y-146234062D01*
X71260589Y-146387808D01*
X71371183Y-146522567D01*
X71404956Y-146550284D01*
X73237220Y-148382549D01*
X73264933Y-148416317D01*
X73298701Y-148444030D01*
X73298703Y-148444032D01*
X73337069Y-148475518D01*
X73399691Y-148526911D01*
X73553437Y-148609089D01*
X73615000Y-148627764D01*
X73615001Y-149041762D01*
X73436446Y-148946324D01*
X73222498Y-148881423D01*
X73000000Y-148859509D01*
X72777501Y-148881423D01*
X72563553Y-148946324D01*
X72366377Y-149051716D01*
X72193551Y-149193551D01*
X72051716Y-149366377D01*
X71946324Y-149563554D01*
X71881423Y-149777502D01*
X71865000Y-149944249D01*
X71865000Y-151673981D01*
X71773815Y-151748815D01*
X71694463Y-151845506D01*
X71635498Y-151955820D01*
X71599188Y-152075518D01*
X71586928Y-152200000D01*
X71586928Y-155800000D01*
X71599188Y-155924482D01*
X71635498Y-156044180D01*
X71694463Y-156154494D01*
X71773815Y-156251185D01*
X71870506Y-156330537D01*
X71980820Y-156389502D01*
X72100518Y-156425812D01*
X72225000Y-156438072D01*
X73725000Y-156438072D01*
X73849482Y-156425812D01*
X73969180Y-156389502D01*
X74079494Y-156330537D01*
X74176185Y-156251185D01*
X74255537Y-156154494D01*
X74314502Y-156044180D01*
X74350812Y-155924482D01*
X74363072Y-155800000D01*
X74363072Y-152200000D01*
X74350812Y-152075518D01*
X74314502Y-151955820D01*
X74255537Y-151845506D01*
X74176185Y-151748815D01*
X74135000Y-151715015D01*
X74135000Y-150885000D01*
X74456524Y-150885000D01*
X74500000Y-150889282D01*
X74577500Y-150881649D01*
X74577501Y-153631739D01*
X74572009Y-153687500D01*
X74593923Y-153909998D01*
X74636928Y-154051765D01*
X74636928Y-155800000D01*
X74649188Y-155924482D01*
X74685498Y-156044180D01*
X74744463Y-156154494D01*
X74823815Y-156251185D01*
X74920506Y-156330537D01*
X75030820Y-156389502D01*
X75150518Y-156425812D01*
X75275000Y-156438072D01*
X76775000Y-156438072D01*
X76899482Y-156425812D01*
X77019180Y-156389502D01*
X77129494Y-156330537D01*
X77226185Y-156251185D01*
X77305537Y-156154494D01*
X77364502Y-156044180D01*
X77400812Y-155924482D01*
X77413072Y-155800000D01*
X77413072Y-155632824D01*
X150935098Y-155632824D01*
X150984666Y-156050451D01*
X151114757Y-156450383D01*
X151272786Y-156746038D01*
X151588347Y-156902048D01*
X152900395Y-155590000D01*
X151588347Y-154277952D01*
X151272786Y-154433962D01*
X151081980Y-154808745D01*
X150967956Y-155213551D01*
X150935098Y-155632824D01*
X77413072Y-155632824D01*
X77413072Y-154098347D01*
X151767952Y-154098347D01*
X153080000Y-155410395D01*
X154392048Y-154098347D01*
X154236038Y-153782786D01*
X153861255Y-153591980D01*
X153456449Y-153477956D01*
X153037176Y-153445098D01*
X152619549Y-153494666D01*
X152219617Y-153624757D01*
X151923962Y-153782786D01*
X151767952Y-154098347D01*
X77413072Y-154098347D01*
X77413072Y-152200000D01*
X77400812Y-152075518D01*
X77364502Y-151955820D01*
X77314926Y-151863072D01*
X77506250Y-151863072D01*
X77673408Y-151846608D01*
X77834142Y-151797850D01*
X77982275Y-151718671D01*
X78084229Y-151635000D01*
X78115001Y-151635000D01*
X78115001Y-151665770D01*
X78031329Y-151767725D01*
X77952150Y-151915858D01*
X77903392Y-152076592D01*
X77886928Y-152243750D01*
X77886928Y-152756250D01*
X77903392Y-152923408D01*
X77952150Y-153084142D01*
X78031329Y-153232275D01*
X78137885Y-153362115D01*
X78267725Y-153468671D01*
X78415858Y-153547850D01*
X78576592Y-153596608D01*
X78743750Y-153613072D01*
X79181250Y-153613072D01*
X79348408Y-153596608D01*
X79509142Y-153547850D01*
X79657275Y-153468671D01*
X79678930Y-153450900D01*
X79745506Y-153505537D01*
X79855820Y-153564502D01*
X79975518Y-153600812D01*
X80100000Y-153613072D01*
X80251750Y-153610000D01*
X80410500Y-153451250D01*
X80410500Y-152627000D01*
X80664500Y-152627000D01*
X80664500Y-153451250D01*
X80823250Y-153610000D01*
X80975000Y-153613072D01*
X81099482Y-153600812D01*
X81219180Y-153564502D01*
X81316089Y-153512702D01*
X149556903Y-153512702D01*
X149628486Y-153756671D01*
X149883996Y-153877571D01*
X150158184Y-153946300D01*
X150440512Y-153960217D01*
X150720130Y-153918787D01*
X150986292Y-153823603D01*
X151111514Y-153756671D01*
X151183097Y-153512702D01*
X150370000Y-152699605D01*
X149556903Y-153512702D01*
X81316089Y-153512702D01*
X81329494Y-153505537D01*
X81426185Y-153426185D01*
X81505537Y-153329494D01*
X81564502Y-153219180D01*
X81600812Y-153099482D01*
X81613072Y-152975000D01*
X81610000Y-152785750D01*
X81451250Y-152627000D01*
X80664500Y-152627000D01*
X80410500Y-152627000D01*
X80390500Y-152627000D01*
X80390500Y-152590512D01*
X148929783Y-152590512D01*
X148971213Y-152870130D01*
X149066397Y-153136292D01*
X149133329Y-153261514D01*
X149377298Y-153333097D01*
X150190395Y-152520000D01*
X150549605Y-152520000D01*
X151362702Y-153333097D01*
X151606671Y-153261514D01*
X151727571Y-153006004D01*
X151796300Y-152731816D01*
X151810217Y-152449488D01*
X151768787Y-152169870D01*
X151673603Y-151903708D01*
X151606671Y-151778486D01*
X151362702Y-151706903D01*
X150549605Y-152520000D01*
X150190395Y-152520000D01*
X149377298Y-151706903D01*
X149133329Y-151778486D01*
X149012429Y-152033996D01*
X148943700Y-152308184D01*
X148929783Y-152590512D01*
X80390500Y-152590512D01*
X80390500Y-152373000D01*
X80410500Y-152373000D01*
X80410500Y-151738750D01*
X80448000Y-151701250D01*
X80448000Y-151548750D01*
X80664500Y-151548750D01*
X80664500Y-152373000D01*
X81451250Y-152373000D01*
X81610000Y-152214250D01*
X81613072Y-152025000D01*
X81600812Y-151900518D01*
X81564502Y-151780820D01*
X81505537Y-151670506D01*
X81486941Y-151647847D01*
X81543037Y-151579494D01*
X81602002Y-151469180D01*
X81638312Y-151349482D01*
X81650572Y-151225000D01*
X81647500Y-151035750D01*
X81488750Y-150877000D01*
X80702000Y-150877000D01*
X80702000Y-151511250D01*
X80664500Y-151548750D01*
X80448000Y-151548750D01*
X80448000Y-150877000D01*
X80428000Y-150877000D01*
X80428000Y-150623000D01*
X80448000Y-150623000D01*
X80448000Y-149798750D01*
X80702000Y-149798750D01*
X80702000Y-150623000D01*
X81488750Y-150623000D01*
X81647500Y-150464250D01*
X81650572Y-150275000D01*
X81638312Y-150150518D01*
X81602002Y-150030820D01*
X81543037Y-149920506D01*
X81463685Y-149823815D01*
X81366994Y-149744463D01*
X81256680Y-149685498D01*
X81136982Y-149649188D01*
X81012500Y-149636928D01*
X80860750Y-149640000D01*
X80702000Y-149798750D01*
X80448000Y-149798750D01*
X80289250Y-149640000D01*
X80137500Y-149636928D01*
X80013018Y-149649188D01*
X79893320Y-149685498D01*
X79783006Y-149744463D01*
X79716430Y-149799100D01*
X79694775Y-149781329D01*
X79546642Y-149702150D01*
X79385908Y-149653392D01*
X79218750Y-149636928D01*
X78781250Y-149636928D01*
X78614092Y-149653392D01*
X78453358Y-149702150D01*
X78305225Y-149781329D01*
X78203271Y-149865000D01*
X78084229Y-149865000D01*
X77982275Y-149781329D01*
X77834142Y-149702150D01*
X77673408Y-149653392D01*
X77506250Y-149636928D01*
X77068750Y-149636928D01*
X76901592Y-149653392D01*
X76847500Y-149669801D01*
X76847500Y-149165132D01*
X77068560Y-148944072D01*
X77255000Y-148944072D01*
X77379482Y-148931812D01*
X77499180Y-148895502D01*
X77609494Y-148836537D01*
X77706185Y-148757185D01*
X77785537Y-148660494D01*
X77844502Y-148550180D01*
X77880812Y-148430482D01*
X77884947Y-148388496D01*
X78714250Y-148386000D01*
X78873000Y-148227250D01*
X78873000Y-146127000D01*
X78853000Y-146127000D01*
X78853000Y-145873000D01*
X78873000Y-145873000D01*
X78873000Y-143772750D01*
X78714250Y-143614000D01*
X78018100Y-143611905D01*
X78173408Y-143596608D01*
X78334142Y-143547850D01*
X78482275Y-143468671D01*
X78584229Y-143385000D01*
X79415771Y-143385000D01*
X79517725Y-143468671D01*
X79665858Y-143547850D01*
X79826592Y-143596608D01*
X79981900Y-143611905D01*
X79285750Y-143614000D01*
X79127000Y-143772750D01*
X79127000Y-145873000D01*
X79147000Y-145873000D01*
X79147000Y-146127000D01*
X79127000Y-146127000D01*
X79127000Y-148227250D01*
X79285750Y-148386000D01*
X80115053Y-148388496D01*
X80119188Y-148430482D01*
X80155498Y-148550180D01*
X80214463Y-148660494D01*
X80293815Y-148757185D01*
X80390506Y-148836537D01*
X80500820Y-148895502D01*
X80620518Y-148931812D01*
X80745000Y-148944072D01*
X80931441Y-148944072D01*
X82038008Y-150050640D01*
X82073551Y-150093949D01*
X82246377Y-150235784D01*
X82443553Y-150341176D01*
X82657501Y-150406077D01*
X82824248Y-150422500D01*
X82824257Y-150422500D01*
X82879999Y-150427990D01*
X82935741Y-150422500D01*
X144656749Y-150422500D01*
X144712500Y-150427991D01*
X144768251Y-150422500D01*
X144768252Y-150422500D01*
X144934999Y-150406077D01*
X145148947Y-150341176D01*
X145346123Y-150235784D01*
X145518949Y-150093949D01*
X145554496Y-150050635D01*
X148950133Y-146655000D01*
X149029043Y-146655000D01*
X149039463Y-146674494D01*
X149118815Y-146771185D01*
X149215506Y-146850537D01*
X149325820Y-146909502D01*
X149421943Y-146938661D01*
X149255363Y-147105241D01*
X149098320Y-147340273D01*
X148990147Y-147601426D01*
X148935000Y-147878665D01*
X148935000Y-148161335D01*
X148990147Y-148438574D01*
X149098320Y-148699727D01*
X149255363Y-148934759D01*
X149340604Y-149020000D01*
X149255363Y-149105241D01*
X149098320Y-149340273D01*
X148990147Y-149601426D01*
X148935000Y-149878665D01*
X148935000Y-150161335D01*
X148990147Y-150438574D01*
X149098320Y-150699727D01*
X149255363Y-150934759D01*
X149455241Y-151134637D01*
X149655869Y-151268692D01*
X149628486Y-151283329D01*
X149556903Y-151527298D01*
X150370000Y-152340395D01*
X151183097Y-151527298D01*
X151111514Y-151283329D01*
X151082659Y-151269676D01*
X151284759Y-151134637D01*
X151484637Y-150934759D01*
X151641680Y-150699727D01*
X151749853Y-150438574D01*
X151758144Y-150396890D01*
X152058524Y-150396890D01*
X152103175Y-150544099D01*
X152228359Y-150806920D01*
X152402412Y-151040269D01*
X152618645Y-151235178D01*
X152868748Y-151384157D01*
X153143109Y-151481481D01*
X153373000Y-151360814D01*
X153373000Y-150167000D01*
X152179845Y-150167000D01*
X152058524Y-150396890D01*
X151758144Y-150396890D01*
X151805000Y-150161335D01*
X151805000Y-149878665D01*
X151749853Y-149601426D01*
X151641680Y-149340273D01*
X151484637Y-149105241D01*
X151399396Y-149020000D01*
X151484637Y-148934759D01*
X151641680Y-148699727D01*
X151749853Y-148438574D01*
X151805000Y-148161335D01*
X151805000Y-147878665D01*
X151749853Y-147601426D01*
X151641680Y-147340273D01*
X151484637Y-147105241D01*
X151318057Y-146938661D01*
X151329928Y-146935060D01*
X152011928Y-147617060D01*
X152011928Y-148350000D01*
X152024188Y-148474482D01*
X152060498Y-148594180D01*
X152119463Y-148704494D01*
X152198815Y-148801185D01*
X152295506Y-148880537D01*
X152405820Y-148939502D01*
X152486466Y-148963966D01*
X152402412Y-149039731D01*
X152228359Y-149273080D01*
X152103175Y-149535901D01*
X152058524Y-149683110D01*
X152179845Y-149913000D01*
X153373000Y-149913000D01*
X153373000Y-149893000D01*
X153627000Y-149893000D01*
X153627000Y-149913000D01*
X153647000Y-149913000D01*
X153647000Y-150167000D01*
X153627000Y-150167000D01*
X153627000Y-151360814D01*
X153856891Y-151481481D01*
X154131252Y-151384157D01*
X154381355Y-151235178D01*
X154597588Y-151040269D01*
X154740000Y-150849340D01*
X154740000Y-154361181D01*
X154571653Y-154277952D01*
X153259605Y-155590000D01*
X154571653Y-156902048D01*
X154740000Y-156818819D01*
X154740000Y-159340000D01*
X61060000Y-159340000D01*
X61060000Y-157081653D01*
X151767952Y-157081653D01*
X151923962Y-157397214D01*
X152298745Y-157588020D01*
X152703551Y-157702044D01*
X153122824Y-157734902D01*
X153540451Y-157685334D01*
X153940383Y-157555243D01*
X154236038Y-157397214D01*
X154392048Y-157081653D01*
X153080000Y-155769605D01*
X151767952Y-157081653D01*
X61060000Y-157081653D01*
X61060000Y-153621874D01*
X61855881Y-153621874D01*
X61935724Y-153844976D01*
X62057631Y-154032764D01*
X62213831Y-154193161D01*
X62398322Y-154320003D01*
X62604013Y-154408415D01*
X62823000Y-154455000D01*
X63123000Y-154455000D01*
X63123000Y-153447000D01*
X63377000Y-153447000D01*
X63377000Y-154455000D01*
X63677000Y-154455000D01*
X63895987Y-154408415D01*
X64101678Y-154320003D01*
X64286169Y-154193161D01*
X64442369Y-154032764D01*
X64564276Y-153844976D01*
X64644119Y-153621874D01*
X65785881Y-153621874D01*
X65865724Y-153844976D01*
X65987631Y-154032764D01*
X66143831Y-154193161D01*
X66328322Y-154320003D01*
X66534013Y-154408415D01*
X66753000Y-154455000D01*
X67303000Y-154455000D01*
X67303000Y-153447000D01*
X67557000Y-153447000D01*
X67557000Y-154455000D01*
X68107000Y-154455000D01*
X68325987Y-154408415D01*
X68531678Y-154320003D01*
X68716169Y-154193161D01*
X68872369Y-154032764D01*
X68994276Y-153844976D01*
X69074119Y-153621874D01*
X68947954Y-153447000D01*
X67557000Y-153447000D01*
X67303000Y-153447000D01*
X65912046Y-153447000D01*
X65785881Y-153621874D01*
X64644119Y-153621874D01*
X64517954Y-153447000D01*
X63377000Y-153447000D01*
X63123000Y-153447000D01*
X61982046Y-153447000D01*
X61855881Y-153621874D01*
X61060000Y-153621874D01*
X61060000Y-153018126D01*
X61855881Y-153018126D01*
X61982046Y-153193000D01*
X63123000Y-153193000D01*
X63123000Y-152185000D01*
X63377000Y-152185000D01*
X63377000Y-153193000D01*
X64517954Y-153193000D01*
X64644119Y-153018126D01*
X64564276Y-152795024D01*
X64442369Y-152607236D01*
X64286169Y-152446839D01*
X64101678Y-152319997D01*
X63895987Y-152231585D01*
X63677000Y-152185000D01*
X63377000Y-152185000D01*
X63123000Y-152185000D01*
X62823000Y-152185000D01*
X62604013Y-152231585D01*
X62398322Y-152319997D01*
X62213831Y-152446839D01*
X62057631Y-152607236D01*
X61935724Y-152795024D01*
X61855881Y-153018126D01*
X61060000Y-153018126D01*
X61060000Y-144981874D01*
X61855881Y-144981874D01*
X61935724Y-145204976D01*
X62057631Y-145392764D01*
X62213831Y-145553161D01*
X62398322Y-145680003D01*
X62604013Y-145768415D01*
X62823000Y-145815000D01*
X63123000Y-145815000D01*
X63123000Y-144807000D01*
X63377000Y-144807000D01*
X63377000Y-145815000D01*
X63677000Y-145815000D01*
X63895987Y-145768415D01*
X64101678Y-145680003D01*
X64286169Y-145553161D01*
X64442369Y-145392764D01*
X64564276Y-145204976D01*
X64644119Y-144981874D01*
X64517954Y-144807000D01*
X63377000Y-144807000D01*
X63123000Y-144807000D01*
X61982046Y-144807000D01*
X61855881Y-144981874D01*
X61060000Y-144981874D01*
X61060000Y-144378126D01*
X61855881Y-144378126D01*
X61982046Y-144553000D01*
X63123000Y-144553000D01*
X63123000Y-143545000D01*
X63377000Y-143545000D01*
X63377000Y-144553000D01*
X64517954Y-144553000D01*
X64644119Y-144378126D01*
X65785881Y-144378126D01*
X65912046Y-144553000D01*
X67303000Y-144553000D01*
X67303000Y-143545000D01*
X66753000Y-143545000D01*
X66534013Y-143591585D01*
X66328322Y-143679997D01*
X66143831Y-143806839D01*
X65987631Y-143967236D01*
X65865724Y-144155024D01*
X65785881Y-144378126D01*
X64644119Y-144378126D01*
X64564276Y-144155024D01*
X64442369Y-143967236D01*
X64286169Y-143806839D01*
X64101678Y-143679997D01*
X63895987Y-143591585D01*
X63677000Y-143545000D01*
X63377000Y-143545000D01*
X63123000Y-143545000D01*
X62823000Y-143545000D01*
X62604013Y-143591585D01*
X62398322Y-143679997D01*
X62213831Y-143806839D01*
X62057631Y-143967236D01*
X61935724Y-144155024D01*
X61855881Y-144378126D01*
X61060000Y-144378126D01*
X61060000Y-140856891D01*
X62518519Y-140856891D01*
X62615843Y-141131252D01*
X62764822Y-141381355D01*
X62959731Y-141597588D01*
X63193080Y-141771641D01*
X63455901Y-141896825D01*
X63603110Y-141941476D01*
X63833000Y-141820155D01*
X63833000Y-140627000D01*
X62639186Y-140627000D01*
X62518519Y-140856891D01*
X61060000Y-140856891D01*
X61060000Y-140143109D01*
X62518519Y-140143109D01*
X62639186Y-140373000D01*
X63833000Y-140373000D01*
X63833000Y-139179845D01*
X64087000Y-139179845D01*
X64087000Y-140373000D01*
X64107000Y-140373000D01*
X64107000Y-140627000D01*
X64087000Y-140627000D01*
X64087000Y-141820155D01*
X64316890Y-141941476D01*
X64464099Y-141896825D01*
X64726920Y-141771641D01*
X64960269Y-141597588D01*
X65036034Y-141513534D01*
X65060498Y-141594180D01*
X65119463Y-141704494D01*
X65198815Y-141801185D01*
X65295506Y-141880537D01*
X65405820Y-141939502D01*
X65525518Y-141975812D01*
X65650000Y-141988072D01*
X67350000Y-141988072D01*
X67474482Y-141975812D01*
X67594180Y-141939502D01*
X67704494Y-141880537D01*
X67801185Y-141801185D01*
X67880537Y-141704494D01*
X67939502Y-141594180D01*
X67975812Y-141474482D01*
X67988072Y-141350000D01*
X67988072Y-140958347D01*
X151767952Y-140958347D01*
X153080000Y-142270395D01*
X154392048Y-140958347D01*
X154236038Y-140642786D01*
X153861255Y-140451980D01*
X153456449Y-140337956D01*
X153037176Y-140305098D01*
X152619549Y-140354666D01*
X152219617Y-140484757D01*
X151923962Y-140642786D01*
X151767952Y-140958347D01*
X67988072Y-140958347D01*
X67988072Y-139650000D01*
X67975812Y-139525518D01*
X67939502Y-139405820D01*
X67880537Y-139295506D01*
X67801185Y-139198815D01*
X67704494Y-139119463D01*
X67594180Y-139060498D01*
X67474482Y-139024188D01*
X67350000Y-139011928D01*
X65650000Y-139011928D01*
X65525518Y-139024188D01*
X65405820Y-139060498D01*
X65295506Y-139119463D01*
X65198815Y-139198815D01*
X65119463Y-139295506D01*
X65060498Y-139405820D01*
X65036034Y-139486466D01*
X64960269Y-139402412D01*
X64726920Y-139228359D01*
X64464099Y-139103175D01*
X64316890Y-139058524D01*
X64087000Y-139179845D01*
X63833000Y-139179845D01*
X63603110Y-139058524D01*
X63455901Y-139103175D01*
X63193080Y-139228359D01*
X62959731Y-139402412D01*
X62764822Y-139618645D01*
X62615843Y-139868748D01*
X62518519Y-140143109D01*
X61060000Y-140143109D01*
X61060000Y-138660000D01*
X154740001Y-138660000D01*
X154740001Y-141221181D01*
G36*
X73386928Y-143850000D02*
G01*
X73390000Y-144001750D01*
X73548750Y-144160500D01*
X74373000Y-144160500D01*
X74373000Y-144140500D01*
X74627000Y-144140500D01*
X74627000Y-144160500D01*
X74647000Y-144160500D01*
X74647000Y-144414500D01*
X74627000Y-144414500D01*
X74627000Y-145201250D01*
X74675750Y-145250000D01*
X74627000Y-145298750D01*
X74627000Y-146085500D01*
X74647000Y-146085500D01*
X74647000Y-146339500D01*
X74627000Y-146339500D01*
X74627000Y-146359500D01*
X74373000Y-146359500D01*
X74373000Y-146339500D01*
X74353000Y-146339500D01*
X74353000Y-146085500D01*
X74373000Y-146085500D01*
X74373000Y-145298750D01*
X74324250Y-145250000D01*
X74373000Y-145201250D01*
X74373000Y-144414500D01*
X73548750Y-144414500D01*
X73390000Y-144573250D01*
X73386928Y-144725000D01*
X73399188Y-144849482D01*
X73435498Y-144969180D01*
X73494463Y-145079494D01*
X73573815Y-145176185D01*
X73663759Y-145250000D01*
X73573815Y-145323815D01*
X73494463Y-145420506D01*
X73435498Y-145530820D01*
X73399188Y-145650518D01*
X73386928Y-145775000D01*
X73390000Y-145926750D01*
X73548748Y-146085498D01*
X73443327Y-146085498D01*
X72885000Y-145527172D01*
X72885000Y-144543469D01*
X72889281Y-144500000D01*
X72885000Y-144456531D01*
X72885000Y-144456523D01*
X72872195Y-144326510D01*
X72821589Y-144159687D01*
X72739411Y-144005941D01*
X72628817Y-143871183D01*
X72599959Y-143847500D01*
X73387174Y-143847500D01*
X73386928Y-143850000D01*
G37*
X73386928Y-143850000D02*
X73390000Y-144001750D01*
X73548750Y-144160500D01*
X74373000Y-144160500D01*
X74373000Y-144140500D01*
X74627000Y-144140500D01*
X74627000Y-144160500D01*
X74647000Y-144160500D01*
X74647000Y-144414500D01*
X74627000Y-144414500D01*
X74627000Y-145201250D01*
X74675750Y-145250000D01*
X74627000Y-145298750D01*
X74627000Y-146085500D01*
X74647000Y-146085500D01*
X74647000Y-146339500D01*
X74627000Y-146339500D01*
X74627000Y-146359500D01*
X74373000Y-146359500D01*
X74373000Y-146339500D01*
X74353000Y-146339500D01*
X74353000Y-146085500D01*
X74373000Y-146085500D01*
X74373000Y-145298750D01*
X74324250Y-145250000D01*
X74373000Y-145201250D01*
X74373000Y-144414500D01*
X73548750Y-144414500D01*
X73390000Y-144573250D01*
X73386928Y-144725000D01*
X73399188Y-144849482D01*
X73435498Y-144969180D01*
X73494463Y-145079494D01*
X73573815Y-145176185D01*
X73663759Y-145250000D01*
X73573815Y-145323815D01*
X73494463Y-145420506D01*
X73435498Y-145530820D01*
X73399188Y-145650518D01*
X73386928Y-145775000D01*
X73390000Y-145926750D01*
X73548748Y-146085498D01*
X73443327Y-146085498D01*
X72885000Y-145527172D01*
X72885000Y-144543469D01*
X72889281Y-144500000D01*
X72885000Y-144456531D01*
X72885000Y-144456523D01*
X72872195Y-144326510D01*
X72821589Y-144159687D01*
X72739411Y-144005941D01*
X72628817Y-143871183D01*
X72599959Y-143847500D01*
X73387174Y-143847500D01*
X73386928Y-143850000D01*
M02*
