G04 #@! TF.GenerationSoftware,KiCad,Pcbnew,(5.1.6)-1*
G04 #@! TF.CreationDate,2020-11-21T14:03:53+08:00*
G04 #@! TF.ProjectId,singlepowerbank2,73696e67-6c65-4706-9f77-657262616e6b,rev?*
G04 #@! TF.SameCoordinates,Original*
G04 #@! TF.FileFunction,Legend,Top*
G04 #@! TF.FilePolarity,Positive*
%FSLAX46Y46*%
G04 Gerber Fmt 4.6, Leading zero omitted, Abs format (unit mm)*
G04 Created by KiCad (PCBNEW (5.1.6)-1) date 2020-11-21 14:03:53*
%MOMM*%
%LPD*%
G01*
G04 APERTURE LIST*
%ADD10C,0.150000*%
%ADD11C,0.120000*%
G04 APERTURE END LIST*
D10*
X104526533Y-154157371D02*
X104669390Y-154204990D01*
X104717009Y-154252609D01*
X104764628Y-154347847D01*
X104764628Y-154490704D01*
X104717009Y-154585942D01*
X104669390Y-154633561D01*
X104574152Y-154681180D01*
X104193200Y-154681180D01*
X104193200Y-153681180D01*
X104526533Y-153681180D01*
X104621771Y-153728800D01*
X104669390Y-153776419D01*
X104717009Y-153871657D01*
X104717009Y-153966895D01*
X104669390Y-154062133D01*
X104621771Y-154109752D01*
X104526533Y-154157371D01*
X104193200Y-154157371D01*
X105669390Y-154681180D02*
X105193200Y-154681180D01*
X105193200Y-153681180D01*
X106431295Y-154681180D02*
X106431295Y-154157371D01*
X106383676Y-154062133D01*
X106288438Y-154014514D01*
X106097961Y-154014514D01*
X106002723Y-154062133D01*
X106431295Y-154633561D02*
X106336057Y-154681180D01*
X106097961Y-154681180D01*
X106002723Y-154633561D01*
X105955104Y-154538323D01*
X105955104Y-154443085D01*
X106002723Y-154347847D01*
X106097961Y-154300228D01*
X106336057Y-154300228D01*
X106431295Y-154252609D01*
X106907485Y-154681180D02*
X106907485Y-153681180D01*
X106907485Y-154062133D02*
X107002723Y-154014514D01*
X107193200Y-154014514D01*
X107288438Y-154062133D01*
X107336057Y-154109752D01*
X107383676Y-154204990D01*
X107383676Y-154490704D01*
X107336057Y-154585942D01*
X107288438Y-154633561D01*
X107193200Y-154681180D01*
X107002723Y-154681180D01*
X106907485Y-154633561D01*
X107574152Y-154776419D02*
X108336057Y-154776419D01*
X108574152Y-154681180D02*
X108574152Y-153681180D01*
X108955104Y-153681180D01*
X109050342Y-153728800D01*
X109097961Y-153776419D01*
X109145580Y-153871657D01*
X109145580Y-154014514D01*
X109097961Y-154109752D01*
X109050342Y-154157371D01*
X108955104Y-154204990D01*
X108574152Y-154204990D01*
X109764628Y-153681180D02*
X109955104Y-153681180D01*
X110050342Y-153728800D01*
X110145580Y-153824038D01*
X110193200Y-154014514D01*
X110193200Y-154347847D01*
X110145580Y-154538323D01*
X110050342Y-154633561D01*
X109955104Y-154681180D01*
X109764628Y-154681180D01*
X109669390Y-154633561D01*
X109574152Y-154538323D01*
X109526533Y-154347847D01*
X109526533Y-154014514D01*
X109574152Y-153824038D01*
X109669390Y-153728800D01*
X109764628Y-153681180D01*
X110526533Y-153681180D02*
X110764628Y-154681180D01*
X110955104Y-153966895D01*
X111145580Y-154681180D01*
X111383676Y-153681180D01*
X111764628Y-154157371D02*
X112097961Y-154157371D01*
X112240819Y-154681180D02*
X111764628Y-154681180D01*
X111764628Y-153681180D01*
X112240819Y-153681180D01*
X113240819Y-154681180D02*
X112907485Y-154204990D01*
X112669390Y-154681180D02*
X112669390Y-153681180D01*
X113050342Y-153681180D01*
X113145580Y-153728800D01*
X113193200Y-153776419D01*
X113240819Y-153871657D01*
X113240819Y-154014514D01*
X113193200Y-154109752D01*
X113145580Y-154157371D01*
X113050342Y-154204990D01*
X112669390Y-154204990D01*
X113431295Y-154776419D02*
X114193200Y-154776419D01*
X114288438Y-153681180D02*
X114621771Y-154681180D01*
X114955104Y-153681180D01*
X115812247Y-154681180D02*
X115240819Y-154681180D01*
X115526533Y-154681180D02*
X115526533Y-153681180D01*
X115431295Y-153824038D01*
X115336057Y-153919276D01*
X115240819Y-153966895D01*
X116240819Y-154585942D02*
X116288438Y-154633561D01*
X116240819Y-154681180D01*
X116193200Y-154633561D01*
X116240819Y-154585942D01*
X116240819Y-154681180D01*
X116907485Y-153681180D02*
X117002723Y-153681180D01*
X117097961Y-153728800D01*
X117145580Y-153776419D01*
X117193200Y-153871657D01*
X117240819Y-154062133D01*
X117240819Y-154300228D01*
X117193200Y-154490704D01*
X117145580Y-154585942D01*
X117097961Y-154633561D01*
X117002723Y-154681180D01*
X116907485Y-154681180D01*
X116812247Y-154633561D01*
X116764628Y-154585942D01*
X116717009Y-154490704D01*
X116669390Y-154300228D01*
X116669390Y-154062133D01*
X116717009Y-153871657D01*
X116764628Y-153776419D01*
X116812247Y-153728800D01*
X116907485Y-153681180D01*
X53454950Y-144865299D02*
X53502591Y-144912897D01*
X53550253Y-145008113D01*
X53550361Y-145246208D01*
X53502786Y-145341468D01*
X53455188Y-145389109D01*
X53359972Y-145436771D01*
X53264734Y-145436814D01*
X53121855Y-145389260D01*
X52550167Y-144818091D01*
X52550448Y-145437139D01*
X53455383Y-145817680D02*
X53503024Y-145865278D01*
X53550686Y-145960494D01*
X53550794Y-146198589D01*
X53503218Y-146293849D01*
X53455621Y-146341490D01*
X53360404Y-146389152D01*
X53265166Y-146389195D01*
X53122288Y-146341641D01*
X52550599Y-145770472D01*
X52550881Y-146389520D01*
X52646313Y-146818048D02*
X52598716Y-146865688D01*
X52551075Y-146818091D01*
X52598673Y-146770450D01*
X52646313Y-146818048D01*
X52551075Y-146818091D01*
X53551378Y-147484303D02*
X53551421Y-147579541D01*
X53503846Y-147674801D01*
X53456248Y-147722442D01*
X53361032Y-147770104D01*
X53170577Y-147817810D01*
X52932482Y-147817918D01*
X52741984Y-147770385D01*
X52646725Y-147722810D01*
X52599084Y-147675212D01*
X52551422Y-147579996D01*
X52551378Y-147484758D01*
X52598954Y-147389498D01*
X52646551Y-147341857D01*
X52741768Y-147294195D01*
X52932222Y-147246489D01*
X53170318Y-147246381D01*
X53360815Y-147293914D01*
X53456075Y-147341489D01*
X53503716Y-147389087D01*
X53551378Y-147484303D01*
X52551962Y-148770472D02*
X52551703Y-148199043D01*
X52551833Y-148484758D02*
X53551833Y-148484303D01*
X53408932Y-148389130D01*
X53313651Y-148293935D01*
X53265988Y-148198719D01*
X53552244Y-149389065D02*
X53552287Y-149484303D01*
X53504711Y-149579563D01*
X53457114Y-149627204D01*
X53361897Y-149674866D01*
X53171443Y-149722571D01*
X52933347Y-149722680D01*
X52742850Y-149675147D01*
X52647590Y-149627571D01*
X52599949Y-149579974D01*
X52552287Y-149484757D01*
X52552244Y-149389519D01*
X52599819Y-149294260D01*
X52647417Y-149246619D01*
X52742633Y-149198957D01*
X52933088Y-149151251D01*
X53171183Y-149151143D01*
X53361681Y-149198675D01*
X53456941Y-149246251D01*
X53504581Y-149293849D01*
X53552244Y-149389065D01*
X52552936Y-150913329D02*
X53219603Y-150913026D01*
X53124365Y-150913069D02*
X53172005Y-150960667D01*
X53219668Y-151055883D01*
X53219732Y-151198740D01*
X53172157Y-151294000D01*
X53076940Y-151341662D01*
X52553131Y-151341900D01*
X53076940Y-151341662D02*
X53172200Y-151389238D01*
X53219862Y-151484454D01*
X53219927Y-151627311D01*
X53172351Y-151722571D01*
X53077135Y-151770234D01*
X52553325Y-151770472D01*
X52553542Y-152246662D02*
X53220208Y-152246359D01*
X53124970Y-152246402D02*
X53172611Y-152294000D01*
X53220273Y-152389216D01*
X53220338Y-152532073D01*
X53172762Y-152627333D01*
X53077546Y-152674995D01*
X52553737Y-152675233D01*
X53077546Y-152674995D02*
X53172806Y-152722571D01*
X53220468Y-152817788D01*
X53220533Y-152960645D01*
X53172957Y-153055904D01*
X53077741Y-153103567D01*
X52553931Y-153103805D01*
D11*
X54269452Y-138002785D02*
X54279452Y-160012785D01*
X60400000Y-138000000D02*
X53683031Y-138003052D01*
X60410000Y-160010000D02*
X53693031Y-160013052D01*
X54279452Y-160012785D02*
X53692520Y-158886548D01*
X54279452Y-160012785D02*
X54865361Y-158886015D01*
X54269452Y-138002785D02*
X53683543Y-139129555D01*
X54269452Y-138002785D02*
X54856384Y-139129022D01*
D10*
X103852380Y-128752380D02*
X104042857Y-128752380D01*
X104138095Y-128704761D01*
X104185714Y-128657142D01*
X104280952Y-128514285D01*
X104328571Y-128323809D01*
X104328571Y-127942857D01*
X104280952Y-127847619D01*
X104233333Y-127800000D01*
X104138095Y-127752380D01*
X103947619Y-127752380D01*
X103852380Y-127800000D01*
X103804761Y-127847619D01*
X103757142Y-127942857D01*
X103757142Y-128180952D01*
X103804761Y-128276190D01*
X103852380Y-128323809D01*
X103947619Y-128371428D01*
X104138095Y-128371428D01*
X104233333Y-128323809D01*
X104280952Y-128276190D01*
X104328571Y-128180952D01*
X105233333Y-127752380D02*
X104757142Y-127752380D01*
X104709523Y-128228571D01*
X104757142Y-128180952D01*
X104852380Y-128133333D01*
X105090476Y-128133333D01*
X105185714Y-128180952D01*
X105233333Y-128228571D01*
X105280952Y-128323809D01*
X105280952Y-128561904D01*
X105233333Y-128657142D01*
X105185714Y-128704761D01*
X105090476Y-128752380D01*
X104852380Y-128752380D01*
X104757142Y-128704761D01*
X104709523Y-128657142D01*
X105709523Y-128657142D02*
X105757142Y-128704761D01*
X105709523Y-128752380D01*
X105661904Y-128704761D01*
X105709523Y-128657142D01*
X105709523Y-128752380D01*
X106376190Y-127752380D02*
X106471428Y-127752380D01*
X106566666Y-127800000D01*
X106614285Y-127847619D01*
X106661904Y-127942857D01*
X106709523Y-128133333D01*
X106709523Y-128371428D01*
X106661904Y-128561904D01*
X106614285Y-128657142D01*
X106566666Y-128704761D01*
X106471428Y-128752380D01*
X106376190Y-128752380D01*
X106280952Y-128704761D01*
X106233333Y-128657142D01*
X106185714Y-128561904D01*
X106138095Y-128371428D01*
X106138095Y-128133333D01*
X106185714Y-127942857D01*
X106233333Y-127847619D01*
X106280952Y-127800000D01*
X106376190Y-127752380D01*
X107328571Y-127752380D02*
X107423809Y-127752380D01*
X107519047Y-127800000D01*
X107566666Y-127847619D01*
X107614285Y-127942857D01*
X107661904Y-128133333D01*
X107661904Y-128371428D01*
X107614285Y-128561904D01*
X107566666Y-128657142D01*
X107519047Y-128704761D01*
X107423809Y-128752380D01*
X107328571Y-128752380D01*
X107233333Y-128704761D01*
X107185714Y-128657142D01*
X107138095Y-128561904D01*
X107090476Y-128371428D01*
X107090476Y-128133333D01*
X107138095Y-127942857D01*
X107185714Y-127847619D01*
X107233333Y-127800000D01*
X107328571Y-127752380D01*
X108280952Y-127752380D02*
X108376190Y-127752380D01*
X108471428Y-127800000D01*
X108519047Y-127847619D01*
X108566666Y-127942857D01*
X108614285Y-128133333D01*
X108614285Y-128371428D01*
X108566666Y-128561904D01*
X108519047Y-128657142D01*
X108471428Y-128704761D01*
X108376190Y-128752380D01*
X108280952Y-128752380D01*
X108185714Y-128704761D01*
X108138095Y-128657142D01*
X108090476Y-128561904D01*
X108042857Y-128371428D01*
X108042857Y-128133333D01*
X108090476Y-127942857D01*
X108138095Y-127847619D01*
X108185714Y-127800000D01*
X108280952Y-127752380D01*
X109804761Y-128752380D02*
X109804761Y-128085714D01*
X109804761Y-128180952D02*
X109852380Y-128133333D01*
X109947619Y-128085714D01*
X110090476Y-128085714D01*
X110185714Y-128133333D01*
X110233333Y-128228571D01*
X110233333Y-128752380D01*
X110233333Y-128228571D02*
X110280952Y-128133333D01*
X110376190Y-128085714D01*
X110519047Y-128085714D01*
X110614285Y-128133333D01*
X110661904Y-128228571D01*
X110661904Y-128752380D01*
X111138095Y-128752380D02*
X111138095Y-128085714D01*
X111138095Y-128180952D02*
X111185714Y-128133333D01*
X111280952Y-128085714D01*
X111423809Y-128085714D01*
X111519047Y-128133333D01*
X111566666Y-128228571D01*
X111566666Y-128752380D01*
X111566666Y-128228571D02*
X111614285Y-128133333D01*
X111709523Y-128085714D01*
X111852380Y-128085714D01*
X111947619Y-128133333D01*
X111995238Y-128228571D01*
X111995238Y-128752380D01*
D11*
X60400000Y-129570000D02*
X155400000Y-129570000D01*
X60400000Y-138000000D02*
X60400000Y-128983579D01*
X155400000Y-138000000D02*
X155400000Y-128983579D01*
X155400000Y-129570000D02*
X154273496Y-130156421D01*
X155400000Y-129570000D02*
X154273496Y-128983579D01*
X60400000Y-129570000D02*
X61526504Y-130156421D01*
X60400000Y-129570000D02*
X61526504Y-128983579D01*
X72115000Y-156110000D02*
X73140000Y-156110000D01*
X76885000Y-156110000D02*
X75860000Y-156110000D01*
X72115000Y-156110000D02*
X72115000Y-155085000D01*
X76885000Y-156110000D02*
X76885000Y-155085000D01*
X76885000Y-151890000D02*
X76885000Y-152915000D01*
X76885000Y-151890000D02*
X75860000Y-151890000D01*
X72115000Y-151890000D02*
X73140000Y-151890000D01*
X72115000Y-151890000D02*
X72115000Y-152915000D01*
X78265000Y-153235000D02*
X80550000Y-153235000D01*
X78265000Y-151765000D02*
X78265000Y-153235000D01*
X80550000Y-151765000D02*
X78265000Y-151765000D01*
X79624721Y-151260000D02*
X79950279Y-151260000D01*
X79624721Y-150240000D02*
X79950279Y-150240000D01*
X76337221Y-151260000D02*
X76662779Y-151260000D01*
X76337221Y-150240000D02*
X76662779Y-150240000D01*
X152170000Y-151370000D02*
X154830000Y-151370000D01*
X152170000Y-148770000D02*
X152170000Y-151370000D01*
X154830000Y-148770000D02*
X154830000Y-151370000D01*
X152170000Y-148770000D02*
X154830000Y-148770000D01*
X152170000Y-147500000D02*
X152170000Y-146170000D01*
X152170000Y-146170000D02*
X153500000Y-146170000D01*
X67830000Y-139170000D02*
X67830000Y-140500000D01*
X66500000Y-139170000D02*
X67830000Y-139170000D01*
X65230000Y-139170000D02*
X65230000Y-141830000D01*
X65230000Y-141830000D02*
X62630000Y-141830000D01*
X65230000Y-139170000D02*
X62630000Y-139170000D01*
X62630000Y-139170000D02*
X62630000Y-141830000D01*
X84490000Y-148662779D02*
X84490000Y-148337221D01*
X85510000Y-148662779D02*
X85510000Y-148337221D01*
D10*
X76925000Y-148575000D02*
X81075000Y-148575000D01*
X75825000Y-143425000D02*
X81075000Y-143425000D01*
D11*
X76837221Y-143010000D02*
X77162779Y-143010000D01*
X76837221Y-141990000D02*
X77162779Y-141990000D01*
X85510000Y-145662779D02*
X85510000Y-145337221D01*
X84490000Y-145662779D02*
X84490000Y-145337221D01*
X82485000Y-141765000D02*
X80200000Y-141765000D01*
X82485000Y-143235000D02*
X82485000Y-141765000D01*
X80200000Y-143235000D02*
X82485000Y-143235000D01*
X75010000Y-147162779D02*
X75010000Y-146837221D01*
X73990000Y-147162779D02*
X73990000Y-146837221D01*
X73990000Y-143337221D02*
X73990000Y-143662779D01*
X75010000Y-143337221D02*
X75010000Y-143662779D01*
X60400000Y-144300000D02*
X60400000Y-153700000D01*
X66200000Y-153700000D02*
X64200000Y-153700000D01*
X62300000Y-153700000D02*
X60400000Y-153700000D01*
X66200000Y-144300000D02*
X64200000Y-144300000D01*
X62300000Y-144300000D02*
X60400000Y-144300000D01*
D10*
X74333333Y-157552380D02*
X73857142Y-157552380D01*
X73857142Y-156552380D01*
X75190476Y-157552380D02*
X74619047Y-157552380D01*
X74904761Y-157552380D02*
X74904761Y-156552380D01*
X74809523Y-156695238D01*
X74714285Y-156790476D01*
X74619047Y-156838095D01*
X81761904Y-152952380D02*
X81761904Y-151952380D01*
X82000000Y-151952380D01*
X82142857Y-152000000D01*
X82238095Y-152095238D01*
X82285714Y-152190476D01*
X82333333Y-152380952D01*
X82333333Y-152523809D01*
X82285714Y-152714285D01*
X82238095Y-152809523D01*
X82142857Y-152904761D01*
X82000000Y-152952380D01*
X81761904Y-152952380D01*
X82714285Y-152047619D02*
X82761904Y-152000000D01*
X82857142Y-151952380D01*
X83095238Y-151952380D01*
X83190476Y-152000000D01*
X83238095Y-152047619D01*
X83285714Y-152142857D01*
X83285714Y-152238095D01*
X83238095Y-152380952D01*
X82666666Y-152952380D01*
X83285714Y-152952380D01*
X82083333Y-151202380D02*
X81750000Y-150726190D01*
X81511904Y-151202380D02*
X81511904Y-150202380D01*
X81892857Y-150202380D01*
X81988095Y-150250000D01*
X82035714Y-150297619D01*
X82083333Y-150392857D01*
X82083333Y-150535714D01*
X82035714Y-150630952D01*
X81988095Y-150678571D01*
X81892857Y-150726190D01*
X81511904Y-150726190D01*
X82416666Y-150202380D02*
X83035714Y-150202380D01*
X82702380Y-150583333D01*
X82845238Y-150583333D01*
X82940476Y-150630952D01*
X82988095Y-150678571D01*
X83035714Y-150773809D01*
X83035714Y-151011904D01*
X82988095Y-151107142D01*
X82940476Y-151154761D01*
X82845238Y-151202380D01*
X82559523Y-151202380D01*
X82464285Y-151154761D01*
X82416666Y-151107142D01*
X76333333Y-149677142D02*
X76285714Y-149724761D01*
X76142857Y-149772380D01*
X76047619Y-149772380D01*
X75904761Y-149724761D01*
X75809523Y-149629523D01*
X75761904Y-149534285D01*
X75714285Y-149343809D01*
X75714285Y-149200952D01*
X75761904Y-149010476D01*
X75809523Y-148915238D01*
X75904761Y-148820000D01*
X76047619Y-148772380D01*
X76142857Y-148772380D01*
X76285714Y-148820000D01*
X76333333Y-148867619D01*
X77190476Y-149105714D02*
X77190476Y-149772380D01*
X76952380Y-148724761D02*
X76714285Y-149439047D01*
X77333333Y-149439047D01*
X83927142Y-148666666D02*
X83974761Y-148714285D01*
X84022380Y-148857142D01*
X84022380Y-148952380D01*
X83974761Y-149095238D01*
X83879523Y-149190476D01*
X83784285Y-149238095D01*
X83593809Y-149285714D01*
X83450952Y-149285714D01*
X83260476Y-149238095D01*
X83165238Y-149190476D01*
X83070000Y-149095238D01*
X83022380Y-148952380D01*
X83022380Y-148857142D01*
X83070000Y-148714285D01*
X83117619Y-148666666D01*
X83022380Y-148333333D02*
X83022380Y-147714285D01*
X83403333Y-148047619D01*
X83403333Y-147904761D01*
X83450952Y-147809523D01*
X83498571Y-147761904D01*
X83593809Y-147714285D01*
X83831904Y-147714285D01*
X83927142Y-147761904D01*
X83974761Y-147809523D01*
X84022380Y-147904761D01*
X84022380Y-148190476D01*
X83974761Y-148285714D01*
X83927142Y-148333333D01*
X79238095Y-148952380D02*
X79238095Y-149761904D01*
X79285714Y-149857142D01*
X79333333Y-149904761D01*
X79428571Y-149952380D01*
X79619047Y-149952380D01*
X79714285Y-149904761D01*
X79761904Y-149857142D01*
X79809523Y-149761904D01*
X79809523Y-148952380D01*
X80809523Y-149952380D02*
X80238095Y-149952380D01*
X80523809Y-149952380D02*
X80523809Y-148952380D01*
X80428571Y-149095238D01*
X80333333Y-149190476D01*
X80238095Y-149238095D01*
X76833333Y-141522380D02*
X76500000Y-141046190D01*
X76261904Y-141522380D02*
X76261904Y-140522380D01*
X76642857Y-140522380D01*
X76738095Y-140570000D01*
X76785714Y-140617619D01*
X76833333Y-140712857D01*
X76833333Y-140855714D01*
X76785714Y-140950952D01*
X76738095Y-140998571D01*
X76642857Y-141046190D01*
X76261904Y-141046190D01*
X77214285Y-140617619D02*
X77261904Y-140570000D01*
X77357142Y-140522380D01*
X77595238Y-140522380D01*
X77690476Y-140570000D01*
X77738095Y-140617619D01*
X77785714Y-140712857D01*
X77785714Y-140808095D01*
X77738095Y-140950952D01*
X77166666Y-141522380D01*
X77785714Y-141522380D01*
X86952380Y-145666666D02*
X86476190Y-146000000D01*
X86952380Y-146238095D02*
X85952380Y-146238095D01*
X85952380Y-145857142D01*
X86000000Y-145761904D01*
X86047619Y-145714285D01*
X86142857Y-145666666D01*
X86285714Y-145666666D01*
X86380952Y-145714285D01*
X86428571Y-145761904D01*
X86476190Y-145857142D01*
X86476190Y-146238095D01*
X86952380Y-144714285D02*
X86952380Y-145285714D01*
X86952380Y-145000000D02*
X85952380Y-145000000D01*
X86095238Y-145095238D01*
X86190476Y-145190476D01*
X86238095Y-145285714D01*
X80261904Y-141452380D02*
X80261904Y-140452380D01*
X80500000Y-140452380D01*
X80642857Y-140500000D01*
X80738095Y-140595238D01*
X80785714Y-140690476D01*
X80833333Y-140880952D01*
X80833333Y-141023809D01*
X80785714Y-141214285D01*
X80738095Y-141309523D01*
X80642857Y-141404761D01*
X80500000Y-141452380D01*
X80261904Y-141452380D01*
X81785714Y-141452380D02*
X81214285Y-141452380D01*
X81500000Y-141452380D02*
X81500000Y-140452380D01*
X81404761Y-140595238D01*
X81309523Y-140690476D01*
X81214285Y-140738095D01*
X73427142Y-147166666D02*
X73474761Y-147214285D01*
X73522380Y-147357142D01*
X73522380Y-147452380D01*
X73474761Y-147595238D01*
X73379523Y-147690476D01*
X73284285Y-147738095D01*
X73093809Y-147785714D01*
X72950952Y-147785714D01*
X72760476Y-147738095D01*
X72665238Y-147690476D01*
X72570000Y-147595238D01*
X72522380Y-147452380D01*
X72522380Y-147357142D01*
X72570000Y-147214285D01*
X72617619Y-147166666D01*
X72617619Y-146785714D02*
X72570000Y-146738095D01*
X72522380Y-146642857D01*
X72522380Y-146404761D01*
X72570000Y-146309523D01*
X72617619Y-146261904D01*
X72712857Y-146214285D01*
X72808095Y-146214285D01*
X72950952Y-146261904D01*
X73522380Y-146833333D01*
X73522380Y-146214285D01*
X73357142Y-143666666D02*
X73404761Y-143714285D01*
X73452380Y-143857142D01*
X73452380Y-143952380D01*
X73404761Y-144095238D01*
X73309523Y-144190476D01*
X73214285Y-144238095D01*
X73023809Y-144285714D01*
X72880952Y-144285714D01*
X72690476Y-144238095D01*
X72595238Y-144190476D01*
X72500000Y-144095238D01*
X72452380Y-143952380D01*
X72452380Y-143857142D01*
X72500000Y-143714285D01*
X72547619Y-143666666D01*
X73452380Y-142714285D02*
X73452380Y-143285714D01*
X73452380Y-143000000D02*
X72452380Y-143000000D01*
X72595238Y-143095238D01*
X72690476Y-143190476D01*
X72738095Y-143285714D01*
X66452380Y-150000000D02*
X65452380Y-150000000D01*
X66452380Y-149523809D02*
X65452380Y-149523809D01*
X66452380Y-148952380D01*
X65452380Y-148952380D01*
X66452380Y-147952380D02*
X66452380Y-148523809D01*
X66452380Y-148238095D02*
X65452380Y-148238095D01*
X65595238Y-148333333D01*
X65690476Y-148428571D01*
X65738095Y-148523809D01*
M02*
